<?xml version="1.0" encoding="UTF-8"?>
<svg version="1.1" xmlns="http://www.w3.org/2000/svg" width="662" height="377">
<path d="M0 0 C5.5358359 3.19418868 7.71724579 8.78250274 9.625 14.625 C9.625 20.86745984 6.6514488 26.90029613 2.625 31.5625 C-2.43147673 34.72402526 -7.39529919 36.50666329 -13.375 35.5625 C-17.5399066 33.89143487 -21.802912 32.16909725 -24.9765625 28.92578125 C-26.43127628 27.24573423 -26.43127628 27.24573423 -29.5 27.0625 C-34.6370744 27.72534831 -38.3527915 29.27844961 -42.375 32.5625 C-44.44581437 35.40864297 -45.96016179 38.34753283 -47.375 41.5625 C-47.705 42.2225 -48.035 42.8825 -48.375 43.5625 C-49.52199269 55.93894661 -48.41637262 68.50226846 -46.625 80.75 C-46.46813721 81.84626709 -46.31127441 82.94253418 -46.1496582 84.07202148 C-44.96912975 91.54190729 -42.9813649 98.46997598 -40.375 105.5625 C-39.95476563 106.71105469 -39.53453125 107.85960938 -39.1015625 109.04296875 C-36.76837163 114.77666121 -34.15693283 119.8069954 -30.51171875 124.8203125 C-29.375 126.5625 -29.375 126.5625 -29.375 128.5625 C-28.385 128.8925 -27.395 129.2225 -26.375 129.5625 C-25.68525874 130.88404425 -25.0208787 132.2189737 -24.375 133.5625 C-22.8078642 135.19596934 -22.8078642 135.19596934 -21 136.625 C-20.38253906 137.13675781 -19.76507813 137.64851562 -19.12890625 138.17578125 C-17.76002495 139.25808161 -16.355048 140.29477323 -14.9375 141.3125 C-14.421875 141.725 -13.90625 142.1375 -13.375 142.5625 C-13.375 143.2225 -13.375 143.8825 -13.375 144.5625 C-12.25351563 144.74039063 -12.25351563 144.74039063 -11.109375 144.921875 C-8.4225292 145.55136459 -6.9073008 146.32240278 -4.625 147.8125 C10.17969844 156.13710912 29.01174326 158.75999092 45.5078125 154.4296875 C48.24511848 153.60948716 50.86350171 152.66631088 53.54296875 151.65625 C56.625 150.5625 56.625 150.5625 60.625 150.5625 C60.625 149.9025 60.625 149.2425 60.625 148.5625 C62.7421875 147.0546875 62.7421875 147.0546875 65.5 145.4375 C66.40492188 144.89867187 67.30984375 144.35984375 68.2421875 143.8046875 C70.625 142.5625 70.625 142.5625 72.625 142.5625 C72.625 141.9025 72.625 141.2425 72.625 140.5625 C76.08653846 137.5625 76.08653846 137.5625 78.625 137.5625 C78.8725 136.94375 79.12 136.325 79.375 135.6875 C80.625 133.5625 80.625 133.5625 82.625 132.625 C85.39477326 131.15355795 85.50034079 129.4449599 86.625 126.5625 C87.54419633 125.09966469 88.50389016 123.66158571 89.5 122.25 C96.75359969 111.58087037 100.89786797 100.29439908 102.8125 87.5625 C102.97685547 86.54671875 103.14121094 85.5309375 103.31054688 84.484375 C108.01925362 59.20400973 108.01925362 59.20400973 102.23828125 35.34375 C98.37810844 31.08167058 94.12778871 28.63192552 88.5 27.4375 C84.29666441 27.57309147 83.07866833 28.35730359 80.10546875 31.2109375 C76.86855214 34.16601177 73.39587824 35.54385918 69.02734375 35.58984375 C62.10449219 35.04199219 62.10449219 35.04199219 59.625 32.5625 C58.779375 32.294375 57.93375 32.02625 57.0625 31.75 C56.258125 31.358125 55.45375 30.96625 54.625 30.5625 C53.8125 27.9375 53.8125 27.9375 53.625 25.5625 C52.965 25.5625 52.305 25.5625 51.625 25.5625 C49.49618516 21.30487031 49.01598357 17.25008103 49.625 12.5625 C50.9375 9.375 50.9375 9.375 52.625 6.5625 C53.0375 5.675625 53.45 4.78875 53.875 3.875 C56.28105612 0.69556869 58.83118019 -0.55936449 62.625 -1.4375 C68.42964752 -1.97668351 74.33723398 -2.14586796 79.625 0.5625 C80.2025 1.38363281 80.78 2.20476563 81.375 3.05078125 C84.23101925 6.23901107 86.00542211 6.42701107 90.1875 7.0625 C100.30642833 8.95388847 109.82319271 12.43306722 116.625 20.5625 C116.79773438 21.27277344 116.97046875 21.98304687 117.1484375 22.71484375 C117.30570313 23.32457031 117.46296875 23.93429688 117.625 24.5625 C118.615 24.8925 119.605 25.2225 120.625 25.5625 C121.9765625 28.36328125 121.9765625 28.36328125 123.25 31.875 C123.88808594 33.60169922 123.88808594 33.60169922 124.5390625 35.36328125 C130.74039641 53.63267864 126.73098851 77.2097963 122.625 95.5625 C122.38652344 96.72394531 122.14804688 97.88539062 121.90234375 99.08203125 C119.28962222 110.76887547 114.89355699 122.35698344 108.625 132.5625 C107.89796875 133.84253906 107.89796875 133.84253906 107.15625 135.1484375 C104.40947568 139.92726425 101.76328787 143.84865191 97.625 147.5625 C96.84125 148.34625 96.0575 149.13 95.25 149.9375 C94.38375 150.80375 93.5175 151.67 92.625 152.5625 C92.14675781 153.08714844 91.66851562 153.61179688 91.17578125 154.15234375 C82.60142972 163.30800724 71.57547107 169.17963553 60 173.6875 C59.04673828 174.08388672 59.04673828 174.08388672 58.07421875 174.48828125 C52.04103569 176.82332459 46.05020012 177.23807653 39.625 177.5625 C39.6156543 178.53372803 39.60630859 179.50495605 39.59667969 180.50561523 C39.55602873 184.19825912 39.49008823 187.89013345 39.41748047 191.58227539 C39.38969673 193.16355308 39.36827669 194.74495867 39.35400391 196.32641602 C39.13523689 219.23132276 33.01849035 239.59617487 20.68701172 258.87451172 C18.62419053 262.15321187 16.73623849 265.53853512 14.81640625 268.90234375 C14.42324219 269.45019531 14.03007813 269.99804688 13.625 270.5625 C12.965 270.5625 12.305 270.5625 11.625 270.5625 C11.51285156 271.25472656 11.40070313 271.94695312 11.28515625 272.66015625 C10.53607046 275.95347426 9.3321749 278.87102909 8.0625 282 C3.35882615 295.02031458 5.22690718 306.42200469 10.875 318.6875 C16.89456048 330.11749877 26.07515196 337.02584916 38.27368164 341.06640625 C52.95091334 345.26041399 68.18145052 343.60743698 81.625 336.5625 C82.5325 335.83546875 83.44 335.1084375 84.375 334.359375 C86.625 332.5625 86.625 332.5625 89.625 332.5625 C89.8725 331.94375 90.12 331.325 90.375 330.6875 C91.625 328.5625 91.625 328.5625 93.625 327.625 C96.3995798 326.15100448 96.58890935 324.46355382 97.625 321.5625 C98.30175781 320.69625 98.30175781 320.69625 98.9921875 319.8125 C101.0310613 317.00295142 102.30709658 314.12196007 103.6875 310.9375 C104.19410156 309.79023438 104.70070312 308.64296875 105.22265625 307.4609375 C108.92835177 297.84353846 109.17761158 287.60966001 109.75 277.4375 C109.83660482 275.98954523 109.92383987 274.54162801 110.01171875 273.09375 C110.22340393 269.58373587 110.42658887 266.07329248 110.625 262.5625 C110.01156738 262.36116455 109.39813477 262.1598291 108.76611328 261.95239258 C107.55544189 261.55250122 107.55544189 261.55250122 106.3203125 261.14453125 C105.52125488 260.8813208 104.72219727 260.61811035 103.89892578 260.34692383 C95.09275997 257.30910863 87.4885106 251.33200653 83.30859375 242.91015625 C78.47435091 232.42907705 75.99101412 220.46035135 80.125 209.1875 C86.94708674 195.11094075 96.15463209 187.75116049 110.625 182.5625 C119.67913976 179.82721495 128.2485401 181.63484278 136.625 185.5625 C148.74383495 192.10708378 155.88419601 200.45045883 160.09033203 213.59423828 C163.09734402 224.66388697 159.7393595 235.66976082 154.625 245.5625 C153.635 245.8925 152.645 246.2225 151.625 246.5625 C150.95737421 248.2287827 150.29082249 249.89549591 149.625 251.5625 C144.26022645 257.12382775 137.81069011 260.0618627 130.625 262.5625 C130.63023682 263.1201001 130.63547363 263.6777002 130.64086914 264.25219727 C130.96944984 304.74249028 130.96944984 304.74249028 121.625 321.5625 C121.30917969 322.37074219 120.99335938 323.17898438 120.66796875 324.01171875 C117.31104608 332.22172063 110.96684359 339.48701384 104.625 345.5625 C103.965 345.5625 103.305 345.5625 102.625 345.5625 C102.625 346.2225 102.625 346.8825 102.625 347.5625 C88.33371475 358.9955282 72.30975692 363.95796293 54.1875 363.8125 C53.22779297 363.82023437 52.26808594 363.82796875 51.27929688 363.8359375 C33.64303644 363.78843242 17.81209021 358.07045086 4.8125 345.9375 C3.7296875 344.761875 3.7296875 344.761875 2.625 343.5625 C1.7175 342.7375 0.81 341.9125 -0.125 341.0625 C-2.49384659 338.43044823 -3.07741358 337.03434157 -3.375 333.5625 C-4.035 333.5625 -4.695 333.5625 -5.375 333.5625 C-12.69648421 321.90235848 -15.55330755 310.41732717 -15.5625 296.8125 C-15.58086914 295.40484375 -15.58086914 295.40484375 -15.59960938 293.96875 C-15.6305308 279.04401066 -10.50034395 266.03395815 -2.375 253.5625 C-1.65376953 252.88574219 -1.65376953 252.88574219 -0.91796875 252.1953125 C1.23238626 249.91974694 2.27206854 247.38442321 3.625 244.5625 C4.33613778 243.25234985 5.05539981 241.94658803 5.78125 240.64453125 C17.15096682 220.04937577 17.91194541 199.70488974 18.625 176.5625 C17.42617187 176.64951172 17.42617187 176.64951172 16.203125 176.73828125 C8.67180948 177.04766628 3.27293721 176.12530919 -3.5234375 172.8515625 C-6.40592463 171.45279662 -6.40592463 171.45279662 -9.78515625 170.66796875 C-13.87121441 169.40969404 -16.91426456 167.61052873 -20.4375 165.25 C-21.02337891 164.87166016 -21.60925781 164.49332031 -22.21289062 164.10351562 C-26.17193491 161.50662864 -29.8683251 158.74893061 -33.375 155.5625 C-33.375 154.9025 -33.375 154.2425 -33.375 153.5625 C-33.95121094 153.32144531 -34.52742188 153.08039063 -35.12109375 152.83203125 C-37.80762674 151.31881943 -39.41327269 149.57064596 -41.4375 147.25 C-42.10910156 146.49074219 -42.78070313 145.73148438 -43.47265625 144.94921875 C-45.35848474 142.58322037 -46.84600891 140.16882899 -48.375 137.5625 C-48.86097656 136.94503906 -49.34695312 136.32757813 -49.84765625 135.69140625 C-51.91043762 132.81617391 -53.34042819 129.70200098 -54.8125 126.5 C-55.09931641 125.89478516 -55.38613281 125.28957031 -55.68164062 124.66601562 C-60.35609077 114.59876999 -63.3439546 104.42847756 -65.5625 93.5625 C-65.82369629 92.29027588 -66.08489258 91.01805176 -66.35400391 89.70727539 C-68.34206559 79.60140172 -69.32430187 69.84408051 -69.375 59.5625 C-69.41238281 58.44101563 -69.44976562 57.31953125 -69.48828125 56.1640625 C-69.81328898 42.85585106 -67.30541755 30.79261573 -58.875 20.125 C-50.88985129 11.94022257 -40.72862364 6.89862904 -29.1875 6.25 C-24.75343582 5.45041466 -23.04307703 4.02549298 -19.91796875 0.9375 C-15.04626866 -3.40386311 -5.63554316 -2.36156094 0 0 Z M105.3125 209.25 C101.96211397 213.84126975 99.12984179 218.78673926 99.625 224.625 C100.01954698 226.60401403 100.01954698 226.60401403 100.625 228.5625 C100.80675781 229.24441406 100.98851562 229.92632812 101.17578125 230.62890625 C103.44552256 236.76302763 107.86586086 238.79595739 113.5546875 241.53125 C117.8323369 242.96801774 120.98180122 243.13542539 125.2578125 241.64453125 C131.50840692 238.46045102 135.23268945 236.01012611 137.9375 229.3125 C139.18286085 222.51962262 138.45120126 216.43845194 134.625 210.5625 C130.40953684 206.46413304 125.58036109 204.01222886 119.75 203.125 C114.36888453 203.87835617 109.69021421 206.05545179 105.3125 209.25 Z " fill="#7FB8D9" transform="translate(70.375,12.4375)"/>
<path d="M0 0 C8.98084849 -0.0934137 17.96152519 -0.16412177 26.94275665 -0.20724869 C31.11484658 -0.22796606 35.28659984 -0.25598643 39.45849609 -0.30175781 C43.49804404 -0.34579076 47.53727188 -0.36925562 51.57704163 -0.37950897 C53.10454842 -0.38679892 54.63204127 -0.40102799 56.15940857 -0.42292023 C70.72448774 -0.62304238 84.20152586 1.49320267 97 9 C97 9.66 97 10.32 97 11 C97.598125 11.26554687 98.19625 11.53109375 98.8125 11.8046875 C103.94486672 14.60915932 106.36327047 19.20309459 108.2734375 24.59375 C112.24488644 38.31669094 113.10438366 53.93072356 106.98046875 67.2109375 C105.9375 68.875 105.9375 68.875 104 71 C103.34 71 102.68 71 102 71 C101.77054687 71.74765625 101.54109375 72.4953125 101.3046875 73.265625 C99.73243439 76.56076625 98.13717541 77.72996545 95.125 79.75 C94.26132812 80.34296875 93.39765625 80.9359375 92.5078125 81.546875 C90.26205223 82.84815665 88.53356817 83.55220656 86 84 C86.61588615 86.8343292 87.48476055 89.17024597 88.85546875 91.72265625 C89.22776611 92.42084473 89.60006348 93.1190332 89.98364258 93.83837891 C90.38091553 94.57233887 90.77818848 95.30629883 91.1875 96.0625 C91.59315186 96.81966309 91.99880371 97.57682617 92.41674805 98.35693359 C93.60635703 100.57392143 94.8021594 102.78745119 96 105 C96.59039062 106.09441406 97.18078125 107.18882812 97.7890625 108.31640625 C99.82275564 112.06570207 101.87349643 115.80248767 104 119.5 C105.690935 122.44504512 107.35425673 125.40443339 109 128.375 C109.474375 129.22835937 109.94875 130.08171875 110.4375 130.9609375 C112.46327862 134.90107691 114.23487194 138.93774145 116 143 C111.07045354 143.09885708 106.14148353 143.17146125 101.21118164 143.21972656 C99.53399608 143.23984565 97.85688069 143.26714451 96.17993164 143.30175781 C93.769518 143.35026569 91.36003128 143.37296464 88.94921875 143.390625 C88.19912033 143.41127014 87.44902191 143.43191528 86.67619324 143.45318604 C81.46417314 143.45543397 81.46417314 143.45543397 79.06787109 141.10424805 C77.96806293 138.93706775 76.90136086 136.79440596 75.9375 134.5625 C73.43239057 128.90897508 70.79320674 123.32775379 68.125 117.75 C64.03503787 109.18847822 59.99817438 100.60476661 56 92 C48.08 91.67 40.16 91.34 32 91 C32 108.16 32 125.32 32 143 C26.905625 143.020625 21.81125 143.04125 16.5625 143.0625 C14.95318604 143.071604 13.34387207 143.08070801 11.68579102 143.09008789 C10.42951904 143.09258545 9.17324707 143.09508301 7.87890625 143.09765625 C6.5854126 143.10289307 5.29191895 143.10812988 3.95922852 143.11352539 C1 143 1 143 0 142 C-0.09646028 140.16505514 -0.12187344 138.32635413 -0.12025452 136.48887634 C-0.12162918 135.2926918 -0.12300385 134.09650726 -0.12442017 132.86407471 C-0.12088057 131.52648901 -0.11724575 130.18890356 -0.11352539 128.85131836 C-0.11324352 127.45217389 -0.11340125 126.05302927 -0.1139679 124.65388489 C-0.11425588 120.84413541 -0.10835898 117.03441714 -0.10139394 113.22467494 C-0.09516059 109.24748691 -0.09455662 105.27029824 -0.09336853 101.29310608 C-0.09025516 93.75661461 -0.08204169 86.22013757 -0.07201904 78.68365246 C-0.06085808 70.10580172 -0.0553475 61.5279503 -0.05032361 52.9500941 C-0.03985908 35.30005454 -0.02225953 17.65002843 0 0 Z M32 26 C32 38.87 32 51.74 32 65 C36.599375 65.04125 41.19875 65.0825 45.9375 65.125 C47.36956787 65.14320801 48.80163574 65.16141602 50.27709961 65.18017578 C63.74482408 65.29399616 63.74482408 65.29399616 75.55859375 59.4609375 C79.76110741 55.20147921 80.2086199 50.729155 80.4375 45 C80.29181707 39.4571115 79.36395962 36.39183617 76 32 C67.65842383 24.84454528 56.16325467 25.61255095 45.8125 25.8125 C38.9753125 25.9053125 38.9753125 25.9053125 32 26 Z " fill="#7DB8DA" transform="translate(405,66)"/>
<path d="M0 0 C1.34888732 0.00015905 2.69778075 0.00584927 4.04663086 0.01586914 C5.10991859 0.01799156 5.10991859 0.01799156 6.19468689 0.02015686 C8.46699173 0.02577096 10.73919936 0.03832576 13.01147461 0.05102539 C14.54858257 0.05603858 16.08569206 0.0606018 17.62280273 0.06469727 C21.39823103 0.07574497 25.17358632 0.09301898 28.94897461 0.11352539 C31.3632329 4.66742175 33.12203533 9.20640717 34.72631836 14.08227539 C34.97893936 14.83963989 35.23156036 15.59700439 35.49183655 16.37731934 C36.02422675 17.97682089 36.55441531 19.57705676 37.08251953 21.17797852 C37.87549812 23.58027259 38.67628349 25.97985113 39.47827148 28.37915039 C42.19974564 36.56060257 44.77925118 44.74499881 47.04296875 53.06665039 C48.01276011 56.32803442 49.19051727 59.45327603 50.44897461 62.61352539 C52.13738952 66.86771885 53.55953712 71.07259645 54.76147461 75.48852539 C56.88213903 83.25842865 59.58193792 90.80636847 62.30761719 98.38256836 C62.64817139 99.33921387 62.98872559 100.29585938 63.33959961 101.28149414 C63.64929688 102.14025146 63.95899414 102.99900879 64.27807617 103.88378906 C64.94897461 106.11352539 64.94897461 106.11352539 64.94897461 109.11352539 C65.60897461 109.11352539 66.26897461 109.11352539 66.94897461 109.11352539 C67.13073242 108.50766602 67.31249023 107.90180664 67.49975586 107.27758789 C68.0314718 105.50520142 68.56409593 103.73308726 69.09741211 101.96118164 C69.63025178 100.17934624 70.15725465 98.3957431 70.67553711 96.60961914 C72.18481459 91.44324623 73.91268829 86.40622407 75.78100586 81.35961914 C78.05830787 75.03039515 80.13305216 68.63114162 82.24389648 62.24487305 C83.22381665 59.28271826 84.21122841 56.32307838 85.19897461 53.36352539 C85.49288086 52.48180664 85.78678711 51.60008789 86.08959961 50.69165039 C86.66603192 48.96235347 87.2428596 47.2331883 87.82006836 45.50415039 C88.78912087 42.59363972 89.75429802 39.68189299 90.71850586 36.76977539 C100.75175414 6.50796632 100.75175414 6.50796632 103.94897461 0.11352539 C113.51897461 0.11352539 123.08897461 0.11352539 132.94897461 0.11352539 C134.0532006 3.42620336 133.92925127 3.85353591 132.72631836 6.92993164 C132.43829346 7.6842749 132.15026855 8.43861816 131.85351562 9.21582031 C131.37483032 10.43362183 131.37483032 10.43362183 130.88647461 11.67602539 C130.22536858 13.41214873 129.56656252 15.14914941 128.90991211 16.88696289 C128.57701172 17.76578125 128.24411133 18.64459961 127.90112305 19.55004883 C126.5184037 23.27275476 125.25202861 27.02894839 124.01147461 30.80102539 C123.77501221 31.51790527 123.5385498 32.23478516 123.29492188 32.97338867 C122.79123444 34.50354891 122.28841878 36.03399632 121.78637695 37.56469727 C120.1438849 42.56400253 118.4836396 47.55740103 116.82397461 52.55102539 C116.49921143 53.53353271 116.17444824 54.51604004 115.83984375 55.52832031 C112.90079002 64.3768354 109.76406123 73.13422651 106.32397461 81.80102539 C104.96406694 85.3020643 103.70982831 88.69850849 102.88647461 92.36352539 C102.12300924 95.41738687 101.26943384 97.74081728 99.94897461 100.55102539 C98.53888488 103.57338684 97.5864448 106.34079898 96.94897461 109.61352539 C96.14856401 113.72277626 94.65919674 117.16712856 92.88256836 120.94165039 C91.78464659 123.33207697 91.78464659 123.33207697 91.01147461 126.92602539 C89.59441884 132.51089224 87.1650664 137.79490509 84.94897461 143.11352539 C72.07897461 143.11352539 59.20897461 143.11352539 45.94897461 143.11352539 C39.28755729 126.45998208 39.28755729 126.45998208 36.94897461 119.11352539 C33.5334253 108.72746729 30.1204948 98.35080973 25.94897461 88.23852539 C24.48258819 84.61502227 23.25878137 80.98273176 22.13647461 77.23852539 C19.39134975 68.0881092 16.14144661 59.11504448 12.94897461 50.11352539 C11.96898959 47.34298099 10.99016468 44.57202745 10.01147461 41.80102539 C9.77533447 41.13296875 9.53919434 40.46491211 9.29589844 39.77661133 C7.10136058 33.56129656 4.92904851 27.33828936 2.76147461 21.11352539 C2.42833252 20.15792725 2.09519043 19.2023291 1.75195312 18.21777344 C-0.22604083 12.5304813 -2.16356035 6.83151204 -4.05102539 1.11352539 C-3.05102539 0.11352539 -3.05102539 0.11352539 0 0 Z " fill="#7EB8D9" transform="translate(253.051025390625,65.886474609375)"/>
<path d="M0 0 C10.23 0 20.46 0 31 0 C31 38.28 31 76.56 31 116 C51.35926608 115.96038757 51.35926608 115.96038757 71.71850586 115.90991211 C74.2589514 115.90699324 76.7993974 115.90444461 79.33984375 115.90234375 C80.00407852 115.89973038 80.66831329 115.897117 81.35267639 115.89442444 C83.30012857 115.88714312 85.24760258 115.8866616 87.19506836 115.88647461 C88.29427109 115.884254 89.39347382 115.88203339 90.52598572 115.87974548 C93 116 93 116 94 117 C94.08748207 118.92667507 94.10697334 120.85651861 94.09765625 122.78515625 C94.09282227 124.53989258 94.09282227 124.53989258 94.08789062 126.33007812 C94.07532227 128.17762695 94.07532227 128.17762695 94.0625 130.0625 C94.05798828 131.29806641 94.05347656 132.53363281 94.04882812 133.80664062 C94.03699608 136.87114117 94.02051173 139.93554721 94 143 C81.89158056 143.02312178 69.78316633 143.04091424 57.67472935 143.05181217 C52.05292038 143.05704136 46.43112647 143.06413966 40.80932617 143.07543945 C35.38881723 143.08626706 29.9683228 143.09227656 24.54780388 143.09487724 C22.47485055 143.09673172 20.40189806 143.10035277 18.32895088 143.10573006 C15.43616107 143.1129388 12.54343204 143.11399101 9.65063477 143.11352539 C8.78461136 143.11712067 7.91858795 143.12071594 7.02632141 143.12442017 C1.11405216 143.11405216 1.11405216 143.11405216 0 142 C-0.09646028 140.16505514 -0.12187344 138.32635413 -0.12025452 136.48887634 C-0.12162918 135.2926918 -0.12300385 134.09650726 -0.12442017 132.86407471 C-0.12088057 131.52648901 -0.11724575 130.18890356 -0.11352539 128.85131836 C-0.11324352 127.45217389 -0.11340125 126.05302927 -0.1139679 124.65388489 C-0.11425588 120.84413541 -0.10835898 117.03441714 -0.10139394 113.22467494 C-0.09516059 109.24748691 -0.09455662 105.27029824 -0.09336853 101.29310608 C-0.09025516 93.75661461 -0.08204169 86.22013757 -0.07201904 78.68365246 C-0.06085808 70.10580172 -0.0553475 61.5279503 -0.05032361 52.9500941 C-0.03985908 35.30005288 -0.02151353 17.65003145 0 0 Z " fill="#7FB9DB" transform="translate(542,66)"/>
<path d="M0 0 C6.47830748 6.18200235 9.90262369 12.89222721 10.33984375 21.87109375 C10.56118719 33.62905209 10.06506492 44.10515583 1.5 53.0546875 C-4.64980784 58.6585594 -12.34696022 59.86623855 -20.4140625 59.66796875 C-27.57569414 58.97455812 -34.97904202 56.80212183 -39.99609375 51.41796875 C-47.17926875 40.62695472 -48.91901063 28.53220871 -46.5 15.80859375 C-43.88638667 8.42550526 -39.51476363 1.76374867 -32.99609375 -2.58203125 C-23.05470961 -6.3100503 -8.68693864 -6.88495137 0 0 Z M-27.99609375 11.41796875 C-32.95876566 16.76555704 -32.58470476 23.94950007 -32.37890625 30.84375 C-31.7010399 37.17280829 -29.91598443 40.67261359 -25.24609375 44.91796875 C-20.97110593 46.89104005 -18.68355157 46.9387974 -13.99609375 46.41796875 C-9.79780895 44.64535961 -7.9424769 42.50537336 -5.99609375 38.41796875 C-4.03776861 30.58466817 -3.65935239 20.8859137 -6.99609375 13.41796875 C-9.99261484 10.42144766 -12.96341966 8.69144478 -16.99609375 7.41796875 C-21.37329209 7.41796875 -24.43636305 8.91827858 -27.99609375 11.41796875 Z " fill="#81B9D8" transform="translate(364.99609375,259.58203125)"/>
<path d="M0 0 C9.31993758 9.74357111 9.36488711 20.30627009 9.1484375 33.12109375 C8.77983712 41.20285322 6.69916128 47.20220728 0.62890625 52.84765625 C-6.55404203 58.11349182 -14.46854905 59.76587184 -23.25 58.875 C-30.56954595 57.64647254 -36.41541384 55.69161147 -41.25 49.875 C-46.45125176 42.31693104 -47.42950033 35.49162961 -47.4375 26.5 C-47.44974609 25.78328125 -47.46199219 25.0665625 -47.47460938 24.328125 C-47.50164085 14.34450128 -44.67438459 7.52838235 -37.76953125 0.33203125 C-27.78675907 -8.79431007 -10.66398714 -6.97260698 0 0 Z M-29.25 11.875 C-33.72085665 18.04169883 -33.99770534 24.65999187 -32.94140625 32.02734375 C-31.93877099 36.65011342 -30.32100689 40.18979173 -27.25 43.875 C-23.34350882 46.19777854 -19.72675079 46.34623693 -15.25 45.875 C-10.14611749 43.57324906 -7.93563 40.56429615 -5.94140625 35.5078125 C-3.93867244 27.8815832 -4.51699527 20.76670105 -8.25 13.875 C-8.683125 12.7303125 -8.683125 12.7303125 -9.125 11.5625 C-10.8152822 9.0270767 -12.31751213 8.63999684 -15.25 7.875 C-21.35233596 7.29382515 -24.43145412 7.72880936 -29.25 11.875 Z " fill="#82B9D8" transform="translate(540.25,260.125)"/>
<path d="M0 0 C1.1034375 0.03544922 2.206875 0.07089844 3.34375 0.10742188 C14.48540519 0.55070626 22.07055398 1.27563248 29.875 9.6875 C36.12401123 17.60291422 35.63702328 29.15738611 34.875 38.6875 C33.36457437 47.0445855 30.97560005 53.68240612 23.875 58.6875 C15.23098027 63.67443446 4.93156587 62.76886236 -4.75 62.8125 C-5.65194092 62.81725342 -6.55388184 62.82200684 -7.4831543 62.8269043 C-8.326604 62.824729 -9.17005371 62.82255371 -10.0390625 62.8203125 C-10.8017041 62.81918457 -11.5643457 62.81805664 -12.35009766 62.81689453 C-14.125 62.6875 -14.125 62.6875 -15.125 61.6875 C-15.21891296 59.78506238 -15.24243658 57.87911541 -15.23852539 55.97436523 C-15.23844986 54.7531749 -15.23837433 53.53198456 -15.23829651 52.27378845 C-15.23318911 50.93122314 -15.22797311 49.58865825 -15.22265625 48.24609375 C-15.22079199 46.87988842 -15.21936813 45.51368243 -15.21836853 44.1474762 C-15.21454394 40.54548305 -15.20471417 36.94353 -15.19366455 33.34155273 C-15.18344916 29.66846255 -15.17887064 25.99536591 -15.17382812 22.32226562 C-15.16309184 15.11065877 -15.14601614 7.899085 -15.125 0.6875 C-10.19535171 -0.9557161 -5.14755126 -0.21497211 0 0 Z M-1.125 12.6875 C-1.125 24.8975 -1.125 37.1075 -1.125 49.6875 C7.86789246 49.96459395 7.86789246 49.96459395 15.875 46.6875 C20.25115056 41.66619758 20.49351386 37.5378679 20.375 31.1875 C20.39046875 30.35863281 20.4059375 29.52976562 20.421875 28.67578125 C20.38724605 23.23037858 19.57938708 19.93800454 15.875 15.6875 C10.65548508 12.13331211 5.08029984 12.6875 -1.125 12.6875 Z " fill="#7FB8D8" transform="translate(275.125,255.3125)"/>
<path d="M0 0 C0.67804687 0.07001221 1.35609375 0.14002441 2.0546875 0.2121582 C7.76813634 0.92279674 11.22251162 2.42437175 14.8125 6.9375 C17.94534713 12.555019 19.19683571 17.48991394 18.3046875 23.84375 C16.65382192 29.53638993 12.78467421 34.09737102 8.625 38.1875 C9.25148438 39.34507812 9.87796875 40.50265625 10.5234375 41.6953125 C11.34920493 43.23424271 12.17471203 44.77331262 13 46.3125 C13.61875 47.45332031 13.61875 47.45332031 14.25 48.6171875 C16.45002206 52.7333578 18.31518349 56.68230694 19.625 61.1875 C17.75244092 63.06005908 14.89075437 62.5746859 12.375 62.6875 C6.27185101 62.62746903 6.27185101 62.62746903 3.79296875 60.94140625 C2.44020794 59.08189694 1.52677532 57.30320363 0.625 55.1875 C0.26148438 54.40761719 -0.10203125 53.62773437 -0.4765625 52.82421875 C-1.17188621 51.2960073 -1.84243441 49.75612773 -2.48046875 48.203125 C-3.41489121 45.94404294 -3.41489121 45.94404294 -5.375 43.1875 C-5.375 42.1975 -5.375 41.2075 -5.375 40.1875 C-8.015 40.1875 -10.655 40.1875 -13.375 40.1875 C-13.36976318 40.81841553 -13.36452637 41.44933105 -13.35913086 42.09936523 C-13.33842174 44.94123347 -13.32535934 47.78308588 -13.3125 50.625 C-13.30412109 51.61822266 -13.29574219 52.61144531 -13.28710938 53.63476562 C-13.28388672 54.57900391 -13.28066406 55.52324219 -13.27734375 56.49609375 C-13.27210693 57.37064209 -13.26687012 58.24519043 -13.26147461 59.14624023 C-13.375 61.1875 -13.375 61.1875 -14.375 62.1875 C-18.665 62.1875 -22.955 62.1875 -27.375 62.1875 C-27.375 41.7275 -27.375 21.2675 -27.375 0.1875 C-17.97574287 -0.98740714 -9.37603354 -1.05758408 0 0 Z M-13.375 12.1875 C-13.375 17.4675 -13.375 22.7475 -13.375 28.1875 C-4.62897762 28.23512372 -4.62897762 28.23512372 2.625 24.1875 C3.5470483 21.09205213 3.86773921 19.06136117 3 15.9375 C1.03052859 13.43090002 -0.25292824 12.96801794 -3.375 12.1875 C-6.72825817 12.03344526 -10.01420888 12.0978789 -13.375 12.1875 Z " fill="#80B9D8" transform="translate(587.375,255.8125)"/>
<path d="M0 0 C1.73828125 2.2421875 1.73828125 2.2421875 3.3125 4.875 C3.84488281 5.73867188 4.37726562 6.60234375 4.92578125 7.4921875 C6 10 6 10 5 14 C1.04 14.66 -2.92 15.32 -7 16 C-7.99 14.35 -8.98 12.7 -10 11 C-11.59616005 8.99034226 -11.59616005 8.99034226 -14 8 C-16.91538419 7.90726412 -19.09102671 8.34313506 -22 9 C-24.26489372 11.81532057 -24.26489372 11.81532057 -24.0625 15 C-23.27257453 18.2294695 -23.27257453 18.2294695 -20.25 19.6875 C-15.6722212 21.32106422 -10.85184362 22.1586186 -6.0859375 23.05859375 C-2.6136823 24.11785135 -0.60133769 25.49053111 2 28 C2 28.66 2 29.32 2 30 C2.99 30.33 3.98 30.66 5 31 C7.07891024 36.82094867 7.5313905 41.9750403 6 48 C2.95880285 53.96975737 -1.06388893 56.87072651 -7.25 59.25 C-16.04158741 61.00831748 -25.58136982 60.88910435 -33.25 55.875 C-37.57813605 51.3501305 -41 47.40717445 -41 41 C-36.0585102 39.02340408 -32.24772017 38.3978026 -27 39 C-25.25 41.3125 -25.25 41.3125 -24 44 C-21.48950159 46.60015907 -20.20257413 46.97421784 -16.5625 47.4375 C-12.38022598 46.9238874 -10.75648288 46.1741318 -8 43 C-7.58190799 39.83151973 -7.58190799 39.83151973 -8 37 C-8.94746094 36.76216797 -8.94746094 36.76216797 -9.9140625 36.51953125 C-15.48062833 35.06773238 -20.97742802 33.43740086 -26.4375 31.625 C-28.16806641 31.05652344 -28.16806641 31.05652344 -29.93359375 30.4765625 C-34.11071892 28.465157 -35.99312619 25.76202918 -38.25 21.8125 C-39.60615521 16.72691797 -40.13794637 11.59976977 -37.984375 6.6796875 C-36.75223535 4.66818242 -35.49517804 2.82369604 -34 1 C-33.56945312 0.47019531 -33.13890625 -0.05960937 -32.6953125 -0.60546875 C-24.34333736 -7.47564185 -8.57486945 -5.66089866 0 0 Z " fill="#81B9D7" transform="translate(654,259)"/>
<path d="M0 0 C0.70511719 0.17273438 1.41023438 0.34546875 2.13671875 0.5234375 C8.13907313 2.28412812 10.7341586 5.84121869 14 11 C14.66 11.99 15.32 12.98 16 14 C16 15.32 16 16.64 16 18 C5.95516413 20.64798505 5.95516413 20.64798505 2 19 C0.29220027 17.37550757 -1.37550757 15.70779973 -3 14 C-5.91553695 11.78821335 -7.15142138 12.00961406 -10.9375 12.25 C-12.29519399 12.48007477 -13.64989801 12.72890596 -15 13 C-16.423125 13.2784375 -16.423125 13.2784375 -17.875 13.5625 C-20.31306366 14.92652714 -20.31306366 14.92652714 -21.3125 18.1875 C-23.0052024 27.10673957 -22.96298912 36.71012112 -20.14453125 45.36328125 C-18.45709606 47.77637116 -16.80301387 48.2076708 -14 49 C-11.10348171 49.23971089 -11.10348171 49.23971089 -8.1875 49.125 C-7.21167969 49.10695313 -6.23585938 49.08890625 -5.23046875 49.0703125 C-4.49441406 49.04710937 -3.75835937 49.02390625 -3 49 C-3 48.34 -3 47.68 -3 47 C-1.36739286 45.62517293 0.30225062 44.29352333 2 43 C2.66 42.34 3.32 41.68 4 41 C6.6015625 41.2421875 6.6015625 41.2421875 9.625 41.875 C10.62789063 42.07867187 11.63078125 42.28234375 12.6640625 42.4921875 C13.43492187 42.65976562 14.20578125 42.82734375 15 43 C15.7265625 45.1796875 15.7265625 45.1796875 16 48 C14.5234375 50.5703125 14.5234375 50.5703125 12.375 53.125 C11.68148437 53.97320312 10.98796875 54.82140625 10.2734375 55.6953125 C4.95552639 61.08632205 -1.34063474 63.05484947 -8.8125 63.3125 C-16.76994474 63.10722449 -23.99099886 60.98169525 -30.2421875 55.9453125 C-38.34730521 46.9756489 -38.79122131 34.6707669 -38.23974609 23.25732422 C-37.57700584 17.01730751 -34.98790903 10.05184031 -30 6 C-29.34 6 -28.68 6 -28 6 C-27.75507813 5.37480469 -27.51015625 4.74960937 -27.2578125 4.10546875 C-25.32674262 0.87302569 -22.91171459 0.61390903 -19.4296875 -0.3984375 C-12.34137038 -2.15342277 -7.04317117 -2.04757691 0 0 Z " fill="#81B9D8" transform="translate(421,256)"/>
<path d="M0 0 C1.72355713 0.00290039 1.72355713 0.00290039 3.48193359 0.00585938 C11.48577311 0.04657412 19.407766 0.31379072 27.375 1.125 C28.79666892 5.39000676 27.95497373 8.67853474 27.375 13.125 C21.765 13.125 16.155 13.125 10.375 13.125 C10.375 29.625 10.375 46.125 10.375 63.125 C6.085 63.125 1.795 63.125 -2.625 63.125 C-3.625 62.125 -3.625 62.125 -3.74525452 60.14451599 C-3.74303391 59.27625687 -3.74081329 58.40799774 -3.73852539 57.51342773 C-3.73844986 56.53248642 -3.73837433 55.5515451 -3.73829651 54.5408783 C-3.73313522 53.4742244 -3.72797394 52.4075705 -3.72265625 51.30859375 C-3.7212413 50.2224025 -3.71982635 49.13621124 -3.71836853 48.0171051 C-3.71275048 44.53220925 -3.70019492 41.04737658 -3.6875 37.5625 C-3.68248733 35.20638113 -3.67792402 32.85026126 -3.67382812 30.49414062 C-3.66277518 24.70440257 -3.64549846 18.91471201 -3.625 13.125 C-9.235 13.125 -14.845 13.125 -20.625 13.125 C-20.625 9.165 -20.625 5.205 -20.625 1.125 C-13.72945132 0.06801809 -6.9686212 -0.02815198 0 0 Z " fill="#85BBD9" transform="translate(462.625,254.875)"/>
<path d="M0 0 C2.64 0.33 5.28 0.66 8 1 C6.625 2.5 6.625 2.5 5 4 C4.34 4 3.68 4 3 4 C2.67 49.21 2.34 94.42 2 141 C31.37 141 60.74 141 91 141 C91 133.74 91 126.48 91 119 C70.87 119 50.74 119 30 119 C30 118.34 30 117.68 30 117 C51.12 117 72.24 117 94 117 C94 125.58 94 134.16 94 143 C81.89157724 143.02254957 69.78316831 143.04091424 57.67472935 143.05181217 C52.05292038 143.05704136 46.43112647 143.06413966 40.80932617 143.07543945 C35.38881723 143.08626706 29.9683228 143.09227656 24.54780388 143.09487724 C22.47485055 143.09673172 20.40189806 143.10035277 18.32895088 143.10573006 C15.43616107 143.1129388 12.54343204 143.11399101 9.65063477 143.11352539 C8.78461136 143.11712067 7.91858795 143.12071594 7.02632141 143.12442017 C1.11405216 143.11405216 1.11405216 143.11405216 0 142 C-0.09646028 140.16505514 -0.12187344 138.32635413 -0.12025452 136.48887634 C-0.12162918 135.2926918 -0.12300385 134.09650726 -0.12442017 132.86407471 C-0.12088057 131.52648901 -0.11724575 130.18890356 -0.11352539 128.85131836 C-0.11324352 127.45217389 -0.11340125 126.05302927 -0.1139679 124.65388489 C-0.11425588 120.84413541 -0.10835898 117.03441714 -0.10139394 113.22467494 C-0.09516059 109.24748691 -0.09455662 105.27029824 -0.09336853 101.29310608 C-0.09025516 93.75661461 -0.08204169 86.22013757 -0.07201904 78.68365246 C-0.06085808 70.10580172 -0.0553475 61.5279503 -0.05032361 52.9500941 C-0.03985908 35.30005454 -0.02225953 17.65002843 0 0 Z " fill="#78ACC8" transform="translate(542,66)"/>
<path d="M0 0 C0.66 0 1.32 0 2 0 C2 46.2 2 92.4 2 140 C11.57 140 21.14 140 31 140 C31 140.66 31 141.32 31 142 C26.74585377 142.02465622 22.49174502 142.04283899 18.23754883 142.05493164 C16.78929927 142.05997101 15.34105483 142.06680253 13.89282227 142.07543945 C11.81525412 142.08752247 9.73775303 142.09323211 7.66015625 142.09765625 C6.40855713 142.10289307 5.15695801 142.10812988 3.86743164 142.11352539 C1 142 1 142 0 141 C-0.09643778 139.17772313 -0.12187371 137.3516664 -0.12025452 135.52684021 C-0.12231651 133.74518463 -0.12231651 133.74518463 -0.12442017 131.92753601 C-0.12082489 130.61267715 -0.11722961 129.2978183 -0.11352539 127.94311523 C-0.11324352 126.55382286 -0.11340125 125.16453033 -0.1139679 123.77523804 C-0.11425588 119.99234711 -0.10835901 116.20948762 -0.10139394 112.42660403 C-0.09516055 108.47744323 -0.09455661 104.52828178 -0.09336853 100.57911682 C-0.09025517 93.09574925 -0.08204172 85.61239621 -0.07201904 78.12903506 C-0.06085805 69.61164267 -0.05534749 61.0942496 -0.05032361 52.57685173 C-0.03985911 35.05122606 -0.02225958 17.52561457 0 0 Z " fill="#7BA7BF" transform="translate(405,67)"/>
<path d="M0 0 C-0.99 0.66 -1.98 1.32 -3 2 C-2.01 2.66 -1.02 3.32 0 4 C-0.33 4.99 -0.66 5.98 -1 7 C-2.32 6.67 -3.64 6.34 -5 6 C-5.33 7.32 -5.66 8.64 -6 10 C-6.845625 9.98839844 -7.69125 9.97679687 -8.5625 9.96484375 C-16.61611392 9.90078091 -24.11388194 10.27491168 -32 12 C-31.34 10.68 -30.68 9.36 -30 8 C-29.34 8 -28.68 8 -28 8 C-28 7.34 -28 6.68 -28 6 C-27.34 5.67 -26.68 5.34 -26 5 C-27.32 5 -28.64 5 -30 5 C-30 2.6875 -30 2.6875 -29 0 C-20.42038237 -4.8786061 -8.5656122 -4.89463554 0 0 Z " fill="#7CB7D9" transform="translate(535,258)"/>
<path d="M0 0 C0.33 0.66 0.66 1.32 1 2 C0.01 2.495 0.01 2.495 -1 3 C-1.33 21.81 -1.66 40.62 -2 60 C10.62450573 60.51137323 10.62450573 60.51137323 23 59 C23 57.68 23 56.36 23 55 C23.66 55 24.32 55 25 55 C25.33 53.02 25.66 51.04 26 49 C25.34 48.67 24.68 48.34 24 48 C24.763125 47.5875 25.52625 47.175 26.3125 46.75 C28.9366642 45.04124191 30.30321976 43.58982247 32 41 C32 42.98 32 44.96 32 47 C32.99 46.67 33.98 46.34 35 46 C36.125 48.3125 36.125 48.3125 37 51 C36.34 51.99 35.68 52.98 35 54 C34.01 53.505 34.01 53.505 33 53 C33 53.99 33 54.98 33 56 C34.98 55.505 34.98 55.505 37 55 C37 54.34 37 53.68 37 53 C37.99 53 38.98 53 40 53 C38.22342725 57.29338414 35.85325279 59.17496387 31.6484375 61.046875 C24.04329164 63.78383015 15.36183258 63.09530654 7.375 63.125 C6.47322021 63.12967285 5.57144043 63.1343457 4.64233398 63.13916016 C3.79872314 63.13706543 2.9551123 63.1349707 2.0859375 63.1328125 C1.3232959 63.13168457 0.5606543 63.13055664 -0.22509766 63.12939453 C-2 63 -2 63 -3 62 C-3.09391296 60.09756238 -3.11743658 58.19161541 -3.11352539 56.28686523 C-3.11344986 55.0656749 -3.11337433 53.84448456 -3.11329651 52.58628845 C-3.10818911 51.24372314 -3.10297311 49.90115825 -3.09765625 48.55859375 C-3.09579199 47.19238842 -3.09436813 45.82618243 -3.09336853 44.4599762 C-3.08954394 40.85798305 -3.07971417 37.25603 -3.06866455 33.65405273 C-3.05844916 29.98096255 -3.05387064 26.30786591 -3.04882812 22.63476562 C-3.03809184 15.42315877 -3.02101614 8.211585 -3 1 C-2.01 0.67 -1.02 0.34 0 0 Z " fill="#88BBD7" transform="translate(263,255)"/>
<path d="M0 0 C2.0625 0.4375 2.0625 0.4375 4 1 C4 3.64 4 6.28 4 9 C4.66 9 5.32 9 6 9 C6.58692566 13.62203955 7.0970075 18.21637853 7.25 22.875 C7.28867187 23.95394531 7.28867187 23.95394531 7.328125 25.0546875 C6.89772751 27.60632978 6.07553957 28.4927056 4 30 C0.8125 29.6875 0.8125 29.6875 -2 29 C-2.33 29.66 -2.66 30.32 -3 31 C-3 30.34 -3 29.68 -3 29 C-3.66 29 -4.32 29 -5 29 C-4.91838805 25.6448921 -4.80561448 22.29150558 -4.6875 18.9375 C-4.66494141 17.99455078 -4.64238281 17.05160156 -4.61914062 16.08007812 C-4.16236413 4.16236413 -4.16236413 4.16236413 0 0 Z " fill="#7CB8DB" transform="translate(389,270)"/>
<path d="M0 0 C4.2515116 0.49055903 7.19459077 2.94282328 10 6 C15.40485703 14.10728555 16.24214664 20.6039414 16.375 30.1875 C16.43107422 31.69280273 16.43107422 31.69280273 16.48828125 33.22851562 C16.57250683 40.42044472 15.10946036 45.09207043 11 51 C10.41137695 49.16259766 10.41137695 49.16259766 10 47 C10.46792969 46.14148438 10.93585937 45.28296875 11.41796875 44.3984375 C13.58888608 39.73498546 13.4018646 35.70090911 13.3125 30.625 C13.31572266 29.7175 13.31894531 28.81 13.32226562 27.875 C13.27775804 22.2589522 12.5837724 17.38861207 11 12 C10.01 12.33 9.02 12.66 8 13 C8 12.34 8 11.68 8 11 C6.88625 11.495 5.7725 11.99 4.625 12.5 C1 14 1 14 -1 14 C-0.34 15.98 0.32 17.96 1 20 C-1.50037734 17.82575883 -2.43628586 16.26954202 -3 13 C-9.20929258 11.44767685 -15.17238822 11.08619411 -21 14 C-21 13.01 -21 12.02 -21 11 C-17.91566208 10.0983142 -15.14658179 9.86531951 -11.9375 9.875 C-11.08027344 9.87242187 -10.22304688 9.86984375 -9.33984375 9.8671875 C-7 10 -7 10 -4 11 C-4 9.35 -4 7.7 -4 6 C-1 6 -1 6 1 7 C1.33 6.34 1.66 5.68 2 5 C0.68 4.34 -0.64 3.68 -2 3 C-1.34 2.01 -0.68 1.02 0 0 Z " fill="#8BBBD5" transform="translate(533,257)"/>
<path d="M0 0 C2.5419589 -0.05434116 5.08273682 -0.0938339 7.625 -0.125 C8.33785156 -0.14175781 9.05070313 -0.15851563 9.78515625 -0.17578125 C14.2612164 -0.21684602 17.77949278 0.30913433 22 2 C19.47368421 4.90526316 19.47368421 4.90526316 17.125 5.375 C14.70096965 5.87767039 14.70096965 5.87767039 12.8125 8.5625 C9.25637842 11.64447204 7.32316092 11.43443823 2.79296875 11.17578125 C2.20128906 11.11777344 1.60960937 11.05976563 1 11 C0.67 10.34 0.34 9.68 0 9 C-2.32156597 8.59270772 -4.6568787 8.25561323 -7 8 C-7 5 -7 5 -6 3 C-4.35 3 -2.7 3 -1 3 C-0.67 2.01 -0.34 1.02 0 0 Z " fill="#7BB6D8" transform="translate(632,307)"/>
<path d="M0 0 C4.69360269 2.17508418 4.69360269 2.17508418 5.8125 5.1875 C5.874375 5.785625 5.93625 6.38375 6 7 C5.34 7 4.68 7 4 7 C3.67 6.34 3.34 5.68 3 5 C-4.92 4.67 -12.84 4.34 -21 4 C-21 21.16 -21 38.32 -21 56 C-23 54 -23 54 -23.24050903 51.78536987 C-23.23606781 50.86603668 -23.23162659 49.94670349 -23.22705078 48.99951172 C-23.22689972 47.95858368 -23.22674866 46.91765564 -23.22659302 45.84518433 C-23.21110916 44.1545134 -23.21110916 44.1545134 -23.1953125 42.4296875 C-23.1924826 41.27832306 -23.18965271 40.12695862 -23.18673706 38.94070435 C-23.17551408 35.25203188 -23.15040556 31.56359947 -23.125 27.875 C-23.11497294 25.37890975 -23.10584662 22.8828157 -23.09765625 20.38671875 C-23.07556784 14.25773016 -23.04206947 8.12888223 -23 2 C-18.55717607 1.02264607 -14.34318128 0.91799672 -9.8125 1 C-4.75744993 1.30807693 -4.75744993 1.30807693 0 0 Z " fill="#ADC8D5" transform="translate(458,153)"/>
<path d="M0 0 C2.39774745 -0.13572155 4.78775245 -0.23436868 7.1875 -0.3125 C8.19780273 -0.3753418 8.19780273 -0.3753418 9.22851562 -0.43945312 C13.27741198 -0.53820669 14.81728908 -0.15022898 17.98828125 2.45703125 C20 5 20 5 20 6 C18.35 6.33 16.7 6.66 15 7 C15 8.32 15 9.64 15 11 C13.25 11.625 13.25 11.625 11 12 C9.66666667 11.33333333 8.33333333 10.66666667 7 10 C3.0300247 9.66916873 0.41205596 9.90027326 -3 12 C-3 11.34 -3 10.68 -3 10 C-2.34 10 -1.68 10 -1 10 C-1.33 8.68 -1.66 7.36 -2 6 C-0.35 6 1.3 6 3 6 C3 5.01 3 4.02 3 3 C2.01 2.67 1.02 2.34 0 2 C0 1.34 0 0.68 0 0 Z " fill="#7CB8DC" transform="translate(341,256)"/>
<path d="M0 0 C2.64 0.33 5.28 0.66 8 1 C6.515 2.485 6.515 2.485 5 4 C4.01 3.67 3.02 3.34 2 3 C1.67 48.87 1.34 94.74 1 142 C0.67 142 0.34 142 0 142 C0 95.14 0 48.28 0 0 Z " fill="#85B3CD" transform="translate(542,66)"/>
<path d="M0 0 C1.92199219 0.04060547 1.92199219 0.04060547 3.8828125 0.08203125 C13.01577315 0.37211504 21.5518856 0.83446135 28.875 6.75 C26.875 7.75 26.875 7.75 24.37426758 6.99902344 C23.32907959 6.62293945 22.2838916 6.24685547 21.20703125 5.859375 C13.61659766 3.42926511 6.48179872 3.08960241 -1.4375 3 C-5.954375 2.9175 -10.47125 2.835 -15.125 2.75 C-15.125 14.96 -15.125 27.17 -15.125 39.75 C-15.455 39.75 -15.785 39.75 -16.125 39.75 C-16.455 28.86 -16.785 17.97 -17.125 6.75 C-17.455 6.75 -17.785 6.75 -18.125 6.75 C-18.125 4.77 -18.125 2.79 -18.125 0.75 C-12.30102319 -1.07232394 -6.01648811 -0.19618983 0 0 Z " fill="#A8CADA" transform="translate(452.125,89.25)"/>
<path d="M0 0 C0.91007812 0.00902344 1.82015625 0.01804687 2.7578125 0.02734375 C3.45648438 0.03894531 4.15515625 0.05054688 4.875 0.0625 C4.875 0.3925 4.875 0.7225 4.875 1.0625 C1.905 1.0625 -1.065 1.0625 -4.125 1.0625 C-4.125 13.2725 -4.125 25.4825 -4.125 38.0625 C1.815 37.5675 1.815 37.5675 7.875 37.0625 C6.885 37.5575 6.885 37.5575 5.875 38.0625 C5.875 38.7225 5.875 39.3825 5.875 40.0625 C3.89513918 39.94902381 1.91608402 39.8214065 -0.0625 39.6875 C-1.16464844 39.61789062 -2.26679688 39.54828125 -3.40234375 39.4765625 C-4.30082031 39.33992188 -5.19929688 39.20328125 -6.125 39.0625 C-7.71145357 35.88959287 -7.24578213 32.47424616 -7.22265625 28.9921875 C-7.2212413 28.19595978 -7.21982635 27.39973206 -7.21836853 26.57937622 C-7.21276345 24.0320462 -7.20021014 21.48480353 -7.1875 18.9375 C-7.18248565 17.21224085 -7.17792263 15.48698033 -7.17382812 13.76171875 C-7.16279237 9.52861209 -7.14552436 5.29557086 -7.125 1.0625 C-4.60024538 -0.19987731 -2.81299534 -0.03606404 0 0 Z " fill="#A2C7D9" transform="translate(278.125,266.9375)"/>
<path d="M0 0 C2.01170453 1.67009433 2.91452532 2.671869 3.58203125 5.234375 C4.07440248 10.60873215 4.18758777 14.9287738 2 20 C-0.375 22.75 -0.375 22.75 -3 25 C-3.61875 25.556875 -4.2375 26.11375 -4.875 26.6875 C-10.87678845 30.39448699 -17.19844126 30.24633412 -24 30 C-24 29.67 -24 29.34 -24 29 C-22.84371094 28.96132813 -22.84371094 28.96132813 -21.6640625 28.921875 C-20.66117188 28.86515625 -19.65828125 28.8084375 -18.625 28.75 C-17.62726562 28.70359375 -16.62953125 28.6571875 -15.6015625 28.609375 C-12.86726353 28.28656753 -12.86726353 28.28656753 -11.75 26.0625 C-11.5025 25.381875 -11.255 24.70125 -11 24 C-9.375 22.25 -9.375 22.25 -8 21 C-8 21.66 -8 22.32 -8 23 C-7.34 23 -6.68 23 -6 23 C-4.66666667 20 -4.66666667 20 -6 17 C-4.02 17 -2.04 17 0 17 C0.19517554 15.06325815 0.38087873 13.12555991 0.5625 11.1875 C0.66691406 10.10855469 0.77132812 9.02960938 0.87890625 7.91796875 C1.17577609 4.93517546 1.17577609 4.93517546 0 2 C0 1.34 0 0.68 0 0 Z " fill="#91BED5" transform="translate(657,289)"/>
<path d="M0 0 C0.99 0 1.98 0 3 0 C2.67 0.99 2.34 1.98 2 3 C1.88624128 4.48770605 1.82392798 5.97967324 1.79467773 7.47143555 C1.7647599 8.82249641 1.7647599 8.82249641 1.73423767 10.20085144 C1.70916893 11.65410576 1.70916893 11.65410576 1.68359375 13.13671875 C1.66281265 14.13129593 1.64203156 15.12587311 1.62062073 16.15058899 C1.55520588 19.32948867 1.4962776 22.50847134 1.4375 25.6875 C1.39430712 27.84180548 1.35069258 29.99610254 1.30664062 32.15039062 C1.19953269 37.43350858 1.09824234 42.71671005 1 48 C4.3 48 7.6 48 11 48 C10.67 32.16 10.34 16.32 10 0 C10.66 0 11.32 0 12 0 C12 16.17 12 32.34 12 49 C8.04 49 4.08 49 0 49 C0 32.83 0 16.66 0 0 Z " fill="#88B6CA" transform="translate(460,268)"/>
<path d="M0 0 C0.33 0.66 0.66 1.32 1 2 C0.01 2.495 0.01 2.495 -1 3 C-1.33 21.81 -1.66 40.62 -2 60 C4.6 60.33 11.2 60.66 18 61 C18 61.66 18 62.32 18 63 C14.68751813 63.02888146 11.37506833 63.04675799 8.0625 63.0625 C7.11697266 63.07087891 6.17144531 63.07925781 5.19726562 63.08789062 C3.84858398 63.09272461 3.84858398 63.09272461 2.47265625 63.09765625 C1.22367554 63.10551147 1.22367554 63.10551147 -0.05053711 63.11352539 C-2 63 -2 63 -3 62 C-3.09391296 60.09756238 -3.11743658 58.19161541 -3.11352539 56.28686523 C-3.11344986 55.0656749 -3.11337433 53.84448456 -3.11329651 52.58628845 C-3.10818911 51.24372314 -3.10297311 49.90115825 -3.09765625 48.55859375 C-3.09579199 47.19238842 -3.09436813 45.82618243 -3.09336853 44.4599762 C-3.08954394 40.85798305 -3.07971417 37.25603 -3.06866455 33.65405273 C-3.05844916 29.98096255 -3.05387064 26.30786591 -3.04882812 22.63476562 C-3.03809184 15.42315877 -3.02101614 8.211585 -3 1 C-2.01 0.67 -1.02 0.34 0 0 Z " fill="#A1CCDD" transform="translate(263,255)"/>
<path d="M0 0 C2.52093298 0.311712 5.0417457 0.62434902 7.5625 0.9375 C8.26697266 1.02451172 8.97144531 1.11152344 9.69726562 1.20117188 C10.74624023 1.33168945 10.74624023 1.33168945 11.81640625 1.46484375 C12.52547119 1.5517749 13.23453613 1.63870605 13.96508789 1.72827148 C15.76506069 1.96862778 17.55577007 2.27625824 19.34375 2.59375 C24.25689141 3.1396546 29.01238531 2.85538105 33.9375 2.5625 C34.90751953 2.51029297 35.87753906 2.45808594 36.87695312 2.40429688 C39.25170788 2.27561558 41.62593229 2.14070204 44 2 C44 2.66 44 3.32 44 4 C37.90124531 5.06472673 31.93287646 5.18346944 25.75 5.1875 C24.29013672 5.20586914 24.29013672 5.20586914 22.80078125 5.22460938 C5.59779763 5.25887827 5.59779763 5.25887827 1.19042969 1.42651367 C0.79758789 0.95576416 0.40474609 0.48501465 0 0 Z " fill="#99C2D4" transform="translate(99,371)"/>
<path d="M0 0 C0.33 0 0.66 0 1 0 C1 1.65 1 3.3 1 5 C-11.87 5 -24.74 5 -38 5 C-37.67 3.68 -37.34 2.36 -37 1 C-36.67 1.33 -36.34 1.66 -36 2 C-33.40640678 2.08851529 -30.83960309 2.11525945 -28.24609375 2.09765625 C-27.47064713 2.0962413 -26.6952005 2.09482635 -25.89625549 2.09336853 C-23.40996506 2.08775345 -20.9237634 2.07519846 -18.4375 2.0625 C-16.75586067 2.05748694 -15.07421994 2.0529237 -13.39257812 2.04882812 C-9.26168434 2.03777913 -5.13085724 2.02050445 -1 2 C-0.67 1.34 -0.34 0.68 0 0 Z " fill="#87B1C6" transform="translate(337,204)"/>
<path d="M0 0 C5.94 0.99 5.94 0.99 12 2 C13 7 13 7 11.3828125 9.67578125 C10.63773437 10.54589844 9.89265625 11.41601562 9.125 12.3125 C8.38507813 13.19550781 7.64515625 14.07851563 6.8828125 14.98828125 C5.95082031 15.98408203 5.95082031 15.98408203 5 17 C4.67 17 4.34 17 4 17 C4.33 13.04 4.66 9.08 5 5 C7.475 5.99 7.475 5.99 10 7 C10 6.01 10 5.02 10 4 C7.03 3.67 4.06 3.34 1 3 C0.67 3.66 0.34 4.32 0 5 C-0.33 4.01 -0.66 3.02 -1 2 C-0.67 1.34 -0.34 0.68 0 0 Z " fill="#88B9D4" transform="translate(424,297)"/>
<path d="M0 0 C3 0 3 0 5.6875 2.375 C8 5 8 5 8 7 C6.35 7.33 4.7 7.66 3 8 C3.66 9.98 4.32 11.96 5 14 C2.49962266 11.82575883 1.56371414 10.26954202 1 7 C-5.20929258 5.44767685 -11.17238822 5.08619411 -17 8 C-17 7.01 -17 6.02 -17 5 C-13.91566208 4.0983142 -11.14658179 3.86531951 -7.9375 3.875 C-7.08027344 3.87242187 -6.22304688 3.86984375 -5.33984375 3.8671875 C-3 4 -3 4 0 5 C0 3.35 0 1.7 0 0 Z " fill="#97C6E0" transform="translate(529,263)"/>
<path d="M0 0 C0.66 1.32 1.32 2.64 2 4 C12.89 3.67 23.78 3.34 35 3 C35.495 4.485 35.495 4.485 36 6 C24.45 6 12.9 6 1 6 C0.67 4.02 0.34 2.04 0 0 Z " fill="#84AEC4" transform="translate(485,203)"/>
<path d="M0 0 C0.99 0.33 1.98 0.66 3 1 C5.13436854 6.52995486 5.26652266 9.78130211 3.01953125 15.23828125 C1.90714163 17.16045641 0.63248883 18.50546798 -1 20 C-1.33 19.34 -1.66 18.68 -2 18 C-2.8353125 18.4640625 -2.8353125 18.4640625 -3.6875 18.9375 C-6.12540433 20.05761821 -8.36224186 20.56037364 -11 21 C-11 20.34 -11 19.68 -11 19 C-9.46875 17.4921875 -9.46875 17.4921875 -7.5 15.875 C-6.8503125 15.33617187 -6.200625 14.79734375 -5.53125 14.2421875 C-4.77328125 13.62730469 -4.77328125 13.62730469 -4 13 C-2.66666667 13.66666667 -1.33333333 14.33333333 0 15 C1.23689062 12.52621876 1.13310087 10.82084683 1.125 8.0625 C1.12757812 7.18722656 1.13015625 6.31195312 1.1328125 5.41015625 C1.09822003 2.85540944 1.09822003 2.85540944 0 0 Z " fill="#87B9D3" transform="translate(75,21)"/>
<path d="M0 0 C2.10808275 1.70144394 2.9276934 2.6023978 3.41992188 5.30908203 C3.47310886 8.24872657 3.50735049 11.18480436 3.5 14.125 C3.52835938 15.13304687 3.55671875 16.14109375 3.5859375 17.1796875 C3.6045414 24.36079263 2.09326522 29.09968076 -2 35 C-2.58911133 33.15283203 -2.58911133 33.15283203 -3 31 C-2.29423828 29.78957031 -2.29423828 29.78957031 -1.57421875 28.5546875 C0.81375409 23.16249076 0.31565682 17.94792006 0.1875 12.125 C0.17396484 10.9596875 0.16042969 9.794375 0.14648438 8.59375 C0.11125821 5.72868882 0.06199715 2.86458623 0 0 Z " fill="#A2C5D4" transform="translate(546,273)"/>
<path d="M0 0 C2.39774745 -0.13572155 4.78775245 -0.23436868 7.1875 -0.3125 C8.19780273 -0.3753418 8.19780273 -0.3753418 9.22851562 -0.43945312 C13.27741198 -0.53820669 14.81728908 -0.15022898 17.98828125 2.45703125 C20 5 20 5 20 6 C18.35 6.33 16.7 6.66 15 7 C15 8.32 15 9.64 15 11 C12.39417629 11.93065133 11.35801776 12.14917407 8.75 11.0625 C8.1725 10.711875 7.595 10.36125 7 10 C7.99 9.67 8.98 9.34 10 9 C10.33 6.69 10.66 4.38 11 2 C7.37 1.67 3.74 1.34 0 1 C0 0.67 0 0.34 0 0 Z " fill="#76B2D3" transform="translate(341,256)"/>
<path d="M0 0 C0.99 0.33 1.98 0.66 3 1 C2.34 1 1.68 1 1 1 C1 1.66 1 2.32 1 3 C1.99 2.01 2.98 1.02 4 0 C5.32 0.66 6.64 1.32 8 2 C7.67 2.33 7.34 2.66 7 3 C7.33 3.66 7.66 4.32 8 5 C7.0625 7.125 7.0625 7.125 6 9 C5.67 9 5.34 9 5 9 C5 7.35 5 5.7 5 4 C3.68 4 2.36 4 1 4 C1 6.64 1 9.28 1 12 C-0.65614657 12.38218767 -2.32457024 12.71395102 -4 13 C-5 12 -5 12 -5.09765625 9.93359375 C-5.08605469 9.10988281 -5.07445312 8.28617187 -5.0625 7.4375 C-5.05347656 6.61121094 -5.04445313 5.78492188 -5.03515625 4.93359375 C-5.02355469 4.29550781 -5.01195312 3.65742188 -5 3 C-4.67 3 -4.34 3 -4 3 C-3.67 4.98 -3.34 6.96 -3 9 C-1.61666667 7.81666667 -1.61666667 7.81666667 -1.5 4.5 C-1 1 -1 1 0 0 Z " fill="#7CB2D0" transform="translate(621,266)"/>
<path d="M0 0 C4.69360269 2.17508418 4.69360269 2.17508418 5.8125 5.1875 C5.874375 5.785625 5.93625 6.38375 6 7 C5.34 7 4.68 7 4 7 C3.67 6.34 3.34 5.68 3 5 C2.28344238 4.98018066 1.56688477 4.96036133 0.82861328 4.93994141 C-2.4063063 4.84490481 -5.64056094 4.73513981 -8.875 4.625 C-10.00292969 4.5940625 -11.13085938 4.563125 -12.29296875 4.53125 C-13.90751953 4.47324219 -13.90751953 4.47324219 -15.5546875 4.4140625 C-16.54968262 4.3826416 -17.54467773 4.3512207 -18.56982422 4.31884766 C-21 4 -21 4 -23 2 C-18.59477895 0.89220374 -14.32034346 0.91841007 -9.8125 1 C-4.75744993 1.30807693 -4.75744993 1.30807693 0 0 Z " fill="#9CC3D3" transform="translate(458,153)"/>
<path d="M0 0 C3.22313813 2.80724934 4.64998321 4.68312622 5 9 C3.12756019 10.87243981 0.06340482 10.17380392 -2.4375 10.1875 C-3.61183594 10.20167969 -4.78617188 10.21585937 -5.99609375 10.23046875 C-9 10 -9 10 -11 8 C-11.39764263 6.01178687 -11.73775349 4.01055661 -12 2 C-11.34 2 -10.68 2 -10 2 C-9.34 3.65 -8.68 5.3 -8 7 C-5.36 7 -2.72 7 0 7 C-0.33 6.34 -0.66 5.68 -1 5 C-0.72057545 3.32345271 -0.39171753 1.65391846 0 0 Z " fill="#8FBDD5" transform="translate(602,308)"/>
<path d="M0 0 C1.65322266 0.01740234 1.65322266 0.01740234 3.33984375 0.03515625 C4.99693359 0.04869141 4.99693359 0.04869141 6.6875 0.0625 C7.54214844 0.07410156 8.39679687 0.08570313 9.27734375 0.09765625 C9.27734375 0.42765625 9.27734375 0.75765625 9.27734375 1.09765625 C5.64734375 1.09765625 2.01734375 1.09765625 -1.72265625 1.09765625 C-1.72265625 8.35765625 -1.72265625 15.61765625 -1.72265625 23.09765625 C-2.71265625 23.09765625 -3.70265625 23.09765625 -4.72265625 23.09765625 C-4.58448666 19.45148954 -4.43584091 15.80582551 -4.28515625 12.16015625 C-4.22618164 10.5987793 -4.22618164 10.5987793 -4.16601562 9.00585938 C-4.12412109 8.01650391 -4.08222656 7.02714844 -4.0390625 6.0078125 C-4.00240479 5.09136963 -3.96574707 4.17492676 -3.92797852 3.23071289 C-3.61783766 0.00871452 -3.28621119 0.11786984 0 0 Z " fill="#75ABC7" transform="translate(574.72265625,293.90234375)"/>
<path d="M0 0 C5.94 2.31 11.88 4.62 18 7 C18 7.33 18 7.66 18 8 C19.134375 8.28875 20.26875 8.5775 21.4375 8.875 C22.613125 9.24625 23.78875 9.6175 25 10 C25.33 10.66 25.66 11.32 26 12 C20.80793346 11.558122 16.91081805 10.20208464 12.2109375 7.98046875 C10.18785537 7.08330689 8.26062983 6.43819352 6.125 5.875 C3 5 3 5 0 3 C0 2.01 0 1.02 0 0 Z " fill="#90BBD0" transform="translate(54,177)"/>
<path d="M0 0 C5.38129382 4.59716243 7.26553922 13.20623777 8 20 C8.66 20 9.32 20 10 20 C10 21.98 10 23.96 10 26 C9.34 26 8.68 26 8 26 C0 7.14893617 0 7.14893617 0 0 Z " fill="#89B4CB" transform="translate(273,133)"/>
<path d="M0 0 C0.33 0.66 0.66 1.32 1 2 C1.66 2 2.32 2 3 2 C3.0543251 5.02107902 3.09382927 8.04116528 3.125 11.0625 C3.14175781 11.91005859 3.15851563 12.75761719 3.17578125 13.63085938 C3.21596135 18.83418201 2.69745815 23.07469821 1 28 C0.67 28 0.34 28 0 28 C0 18.76 0 9.52 0 0 Z " fill="#9CC0D0" transform="translate(372,275)"/>
<path d="M0 0 C1.32 0 2.64 0 4 0 C3.67 1.98 3.34 3.96 3 6 C4.65 6 6.3 6 8 6 C8 9 8 12 8 15 C6.79803846 13.19705769 5.60688468 11.38674011 4.4375 9.5625 C1.1319307 6.08741432 -2.57462999 4.69260947 -7 3 C-7 2.67 -7 2.34 -7 2 C-4.69 2 -2.38 2 0 2 C0 1.34 0 0.68 0 0 Z " fill="#94C1D4" transform="translate(200,214)"/>
<path d="M0 0 C2.41402218 7.95927604 -2.61062787 15.96252505 -6 23 C-7.12865035 19.67424363 -6.8691177 17.87796829 -5.625 14.625 C-4.34485838 11.08853571 -3.48037278 7.74690769 -3 4 C-2.34 4 -1.68 4 -1 4 C-0.67 2.68 -0.34 1.36 0 0 Z " fill="#8FBBD3" transform="translate(356,150)"/>
<path d="M0 0 C0.99 0.33 1.98 0.66 3 1 C2.04956626 2.33897583 1.08940853 3.67105427 0.125 5 C-0.40867187 5.7425 -0.94234375 6.485 -1.4921875 7.25 C-1.98976563 7.8275 -2.48734375 8.405 -3 9 C-3.66 9 -4.32 9 -5 9 C-5 9.66 -5 10.32 -5 11 C-5.66 11 -6.32 11 -7 11 C-7 18.26 -7 25.52 -7 33 C-7.33 33 -7.66 33 -8 33 C-8.31320385 29.25227692 -8.56814264 25.502791 -8.8125 21.75 C-8.90208984 20.68652344 -8.99167969 19.62304688 -9.08398438 18.52734375 C-9.25835127 15.60899255 -9.36343898 12.90178386 -9 10 C-6.65625 7.46875 -6.65625 7.46875 -4 6 C-2.60644236 4.04148656 -1.25717453 2.04872887 0 0 Z " fill="#7EB2CE" transform="translate(27,42)"/>
<path d="M0 0 C0.66 0 1.32 0 2 0 C2 9.24 2 18.48 2 28 C-1.63446251 24.36553749 -1.12813869 19.59065329 -1.13671875 14.71289062 C-1.13285156 13.96201172 -1.12898438 13.21113281 -1.125 12.4375 C-1.12886719 11.68275391 -1.13273437 10.92800781 -1.13671875 10.15039062 C-1.13045683 6.59675207 -0.95795536 3.41753192 0 0 Z " fill="#B0D0DC" transform="translate(319,274)"/>
<path d="M0 0 C0.66 0.99 1.32 1.98 2 3 C1.34 3 0.68 3 0 3 C0.66 3.66 1.32 4.32 2 5 C2 5.99 2 6.98 2 8 C0 10 0 10 -2.625 10.125 C-3.40875 10.08375 -4.1925 10.0425 -5 10 C-5 10.66 -5 11.32 -5 12 C-6.375 13.5 -6.375 13.5 -8 15 C-8.66 15.66 -9.32 16.32 -10 17 C-10.33 16.01 -10.66 15.02 -11 14 C-9.625 12.5 -9.625 12.5 -8 11 C-7.34 11 -6.68 11 -6 11 C-5.7525 10.29875 -5.505 9.5975 -5.25 8.875 C-3.83911974 5.62997541 -2.02104602 2.89683263 0 0 Z " fill="#90BED5" transform="translate(161,133)"/>
<path d="M0 0 C1.90234375 0.82421875 1.90234375 0.82421875 4.52734375 2.32421875 C2.54734375 3.31421875 2.54734375 3.31421875 0.52734375 4.32421875 C0.19734375 3.66421875 -0.13265625 3.00421875 -0.47265625 2.32421875 C-2.86856663 2.29709524 -5.26416582 2.27732055 -7.66015625 2.26171875 C-8.33369141 2.25333984 -9.00722656 2.24496094 -9.70117188 2.23632812 C-13.42699756 2.21815337 -16.85146045 2.43122483 -20.47265625 3.32421875 C-20.47265625 2.66421875 -20.47265625 2.00421875 -20.47265625 1.32421875 C-14.78657704 -2.21723505 -6.28563279 -1.71787436 0 0 Z " fill="#85B2C7" transform="translate(530.47265625,255.67578125)"/>
<path d="M0 0 C1.27172828 2.54345656 0.73272434 3.31733796 0 6 C-0.13929356 7.36676632 -0.24365301 8.7374567 -0.31640625 10.109375 C-0.35830078 10.86347656 -0.40019531 11.61757813 -0.44335938 12.39453125 C-0.50233398 13.56048828 -0.50233398 13.56048828 -0.5625 14.75 C-0.60568359 15.54277344 -0.64886719 16.33554687 -0.69335938 17.15234375 C-0.79902991 19.10137815 -0.89997966 21.05066748 -1 23 C-1.66 23 -2.32 23 -3 23 C-3.08120751 20.10359882 -3.14059421 17.20949088 -3.1875 14.3125 C-3.21263672 13.49587891 -3.23777344 12.67925781 -3.26367188 11.83789062 C-3.32217012 7.02153514 -3.07302376 3.96024846 0 0 Z " fill="#98C0D4" transform="translate(386,272)"/>
<path d="M0 0 C0.66 0 1.32 0 2 0 C2 0.66 2 1.32 2 2 C1.01 2.495 1.01 2.495 0 3 C-0.33 3.99 -0.66 4.98 -1 6 C-0.34 6.33 0.32 6.66 1 7 C1 8.32 1 9.64 1 11 C0.34 11 -0.32 11 -1 11 C-1 10.01 -1 9.02 -1 8 C-4.60654039 10.40436026 -4.85452932 11.94679607 -6 16 C-6.66 15.34 -7.32 14.68 -8 14 C-7.62265617 10.83560789 -6.26195864 8.52756749 -4.5625 5.875 C-4.13066406 5.19179688 -3.69882812 4.50859375 -3.25390625 3.8046875 C-2 2 -2 2 0 0 Z " fill="#90BED4" transform="translate(328,260)"/>
<path d="M0 0 C2.97 0.495 2.97 0.495 6 1 C5.33333333 2.33333333 4.66666667 3.66666667 4 5 C5.32 4.67 6.64 4.34 8 4 C8 5.32 8 6.64 8 8 C8.99 8.66 9.98 9.32 11 10 C8 11 8 11 5.5 9.875 C2.741871 7.80640325 1.47209011 6.09913708 0 3 C0 2.01 0 1.02 0 0 Z " fill="#90BED4" transform="translate(616,278)"/>
<path d="M0 0 C0.66 1.32 1.32 2.64 2 4 C2.99 4 3.98 4 5 4 C4.01 5.485 4.01 5.485 3 7 C2.34 7 1.68 7 1 7 C0.34 9.97 -0.32 12.94 -1 16 C-2.32 16.33 -3.64 16.66 -5 17 C-4.72285156 16.27554687 -4.44570312 15.55109375 -4.16015625 14.8046875 C-1.44378773 7.57244353 -1.44378773 7.57244353 0 0 Z " fill="#97BDD2" transform="translate(178,310)"/>
<path d="M0 0 C0.66 0 1.32 0 2 0 C2 1.32 2 2.64 2 4 C2.99 2.68 3.98 1.36 5 0 C6.32 0.33 7.64 0.66 9 1 C6.09710342 5.24269501 3.96680925 6.73187849 -1 8 C-1.99 8.33 -2.98 8.66 -4 9 C-2.94124926 5.59687262 -1.99097846 2.98646769 0 0 Z " fill="#8AB8D1" transform="translate(389,264)"/>
<path d="M0 0 C-0.66 1.65 -1.32 3.3 -2 5 C-2.78375 4.814375 -3.5675 4.62875 -4.375 4.4375 C-6.97089775 3.74037734 -6.97089775 3.74037734 -9 5 C-9.33 5.99 -9.66 6.98 -10 8 C-10.99 8 -11.98 8 -13 8 C-12.67 6.68 -12.34 5.36 -12 4 C-11.34 4 -10.68 4 -10 4 C-10 3.01 -10 2.02 -10 1 C-6.52674819 -0.1577506 -3.63932552 -0.06866652 0 0 Z " fill="#78B5D9" transform="translate(340,258)"/>
<path d="M0 0 C3.40058449 5.10087674 2.54408126 11.04673872 2 17 C0.99228877 20.52698932 -0.31911807 23.74329127 -2 27 C-2.99 26.34 -3.98 25.68 -5 25 C-4.01 25 -3.02 25 -2 25 C-2.20625 24.46375 -2.4125 23.9275 -2.625 23.375 C-3.1314747 20.16732692 -2.15400225 17.98682934 -1 15 C-0.67 15 -0.34 15 0 15 C0 10.05 0 5.1 0 0 Z " fill="#B0D4E0" transform="translate(229,225)"/>
<path d="M0 0 C5.94 0.99 5.94 0.99 12 2 C12.33 3.65 12.66 5.3 13 7 C11.5625 8.8125 11.5625 8.8125 10 10 C10 8.02 10 6.04 10 4 C7.03 3.67 4.06 3.34 1 3 C0.67 3.66 0.34 4.32 0 5 C-0.33 4.01 -0.66 3.02 -1 2 C-0.67 1.34 -0.34 0.68 0 0 Z " fill="#9CC2D3" transform="translate(424,297)"/>
<path d="M0 0 C1.5 1.375 1.5 1.375 3 3 C3 3.66 3 4.32 3 5 C3.99 5.33 4.98 5.66 6 6 C6.68486725 7.32407669 7.34870203 8.65909241 8 10 C9.29470975 11.37086915 10.62150897 12.71340837 12 14 C9.625 13.8125 9.625 13.8125 7 13 C6.690625 12.195625 6.38125 11.39125 6.0625 10.5625 C5.20990208 7.65720566 5.20990208 7.65720566 1.875 6.6875 C0.92625 6.460625 -0.0225 6.23375 -1 6 C-1.042721 4.33388095 -1.04063832 2.66617115 -1 1 C-0.67 0.67 -0.34 0.34 0 0 Z " fill="#90BBD0" transform="translate(38,136)"/>
<path d="M0 0 C-0.24326471 7.66283829 -2.33741003 11.96857627 -7 18 C-7.33 17.01 -7.66 16.02 -8 15 C-7.01508669 13.29281693 -6.02447461 11.58819543 -4.984375 9.9140625 C-3.52445703 7.07533312 -3.37661058 4.13842153 -3 1 C-1 0 -1 0 0 0 Z " fill="#A2C5D7" transform="translate(606,273)"/>
<path d="M0 0 C0.33 0 0.66 0 1 0 C0.22095672 10.55808656 0.22095672 10.55808656 -2 15 C-3.32 14.67 -4.64 14.34 -6 14 C-6 13.34 -6 12.68 -6 12 C-5.34 11.67 -4.68 11.34 -4 11 C-3.12606483 8.68858179 -3.12606483 8.68858179 -2.4375 6 C-1.09197652 1.09197652 -1.09197652 1.09197652 0 0 Z " fill="#8EBCD2" transform="translate(106,229)"/>
<path d="M0 0 C0.66 0 1.32 0 2 0 C1.69461464 2.85026332 0.95551924 4.05165508 -0.9375 6.25 C-5.27791135 8.73023506 -9.11230586 8.34166406 -14 8 C-13.67 7.34 -13.34 6.68 -13 6 C-11.7625 5.896875 -10.525 5.79375 -9.25 5.6875 C-4.74007024 5.26721981 -2.97253675 3.40967451 0 0 Z " fill="#9BBFD1" transform="translate(50,13)"/>
<path d="M0 0 C0.99 0 1.98 0 3 0 C3.33 0.99 3.66 1.98 4 3 C3.67 3.66 3.34 4.32 3 5 C3.66 5.66 4.32 6.32 5 7 C2.04335481 8.4783226 -0.74229737 8.06032783 -4 8 C-4 7.34 -4 6.68 -4 6 C-3.34 5.67 -2.68 5.34 -2 5 C-1.27840576 3.35636866 -0.60648579 1.68949614 0 0 Z " fill="#76B6DD" transform="translate(599,308)"/>
<path d="M0 0 C1.34888732 0.00015905 2.69778075 0.00584927 4.04663086 0.01586914 C5.10991859 0.01799156 5.10991859 0.01799156 6.19468689 0.02015686 C8.46699173 0.02577096 10.73919936 0.03832576 13.01147461 0.05102539 C14.54858257 0.05603858 16.08569206 0.0606018 17.62280273 0.06469727 C21.39823103 0.07574497 25.17358632 0.09301898 28.94897461 0.11352539 C28.94897461 0.44352539 28.94897461 0.77352539 28.94897461 1.11352539 C28.05065918 1.12810791 27.15234375 1.14269043 26.22680664 1.15771484 C22.89790871 1.21872236 19.56984578 1.29286168 16.24145508 1.37597656 C14.80016118 1.40925717 13.35873598 1.43727943 11.91723633 1.45996094 C9.84651664 1.49345159 7.77700368 1.54575839 5.70678711 1.60180664 C4.4604248 1.62799072 3.2140625 1.6541748 1.92993164 1.68115234 C0.94621582 1.82383545 -0.0375 1.96651855 -1.05102539 2.11352539 C-2.04102539 3.59852539 -2.04102539 3.59852539 -3.05102539 5.11352539 C-3.61352539 3.17602539 -3.61352539 3.17602539 -4.05102539 1.11352539 C-3.05102539 0.11352539 -3.05102539 0.11352539 0 0 Z " fill="#A5C9DB" transform="translate(253.051025390625,65.886474609375)"/>
<path d="M0 0 C0.33 0 0.66 0 1 0 C1 1.65 1 3.3 1 5 C3.31 5.33 5.62 5.66 8 6 C8 6.66 8 7.32 8 8 C8.99 8.33 9.98 8.66 11 9 C3.72619715 8.49835842 -0.99049021 6.56612198 -6 1 C-3.03 1.495 -3.03 1.495 0 2 C0 1.34 0 0.68 0 0 Z " fill="#90BCD0" transform="translate(396,309)"/>
<path d="M0 0 C0.33 0.66 0.66 1.32 1 2 C-0.328125 4.49609375 -0.328125 4.49609375 -2.25 7.4375 C-3.18585938 8.88962891 -3.18585938 8.88962891 -4.140625 10.37109375 C-5.6486471 12.50323423 -7.07911316 14.25104439 -9 16 C-10 13 -10 13 -9.0625 10.8125 C-8.5365625 9.9153125 -8.5365625 9.9153125 -8 9 C-7.34 9 -6.68 9 -6 9 C-5.5978125 7.7934375 -5.5978125 7.7934375 -5.1875 6.5625 C-4.795625 5.716875 -4.40375 4.87125 -4 4 C-3.01 3.67 -2.02 3.34 -1 3 C-0.67 2.01 -0.34 1.02 0 0 Z " fill="#A2C4D6" transform="translate(180,140)"/>
<path d="M0 0 C6.43974581 0.62320121 12.67572401 1.64008262 19 3 C15.58496139 5.27669241 14.15336325 5.09255712 10.20703125 4.4921875 C6.63702733 3.69604503 3.38091998 2.38859213 0 1 C0 0.67 0 0.34 0 0 Z " fill="#94BED3" transform="translate(627,289)"/>
<path d="M0 0 C1.11510202 3.97775197 0.85389472 6.29221055 -1 10 C-1.66 10 -2.32 10 -3 10 C-3.66 11.65 -4.32 13.3 -5 15 C-5.66 14.67 -6.32 14.34 -7 14 C-4.66666667 9.33333333 -2.33333333 4.66666667 0 0 Z " fill="#96C0D2" transform="translate(80,246)"/>
<path d="M0 0 C0.66 0 1.32 0 2 0 C1.85795259 1.58367747 1.71119847 3.16693318 1.5625 4.75 C1.48128906 5.63171875 1.40007812 6.5134375 1.31640625 7.421875 C1.03761535 9.69350452 0.61209423 11.79851823 0 14 C-0.28875 13.236875 -0.5775 12.47375 -0.875 11.6875 C-1.96269013 8.84970692 -1.96269013 8.84970692 -4 6 C-1.125 1.125 -1.125 1.125 0 0 Z " fill="#84BFE1" transform="translate(349,163)"/>
<path d="M0 0 C0.99 0.33 1.98 0.66 3 1 C0.74113183 3.56919192 -1.20020805 4.68000131 -4.4375 5.75 C-5.19933594 6.01296875 -5.96117187 6.2759375 -6.74609375 6.546875 C-9.20513089 7.04123949 -10.64672554 6.79335904 -13 6 C-11.58774074 5.32404685 -10.16997095 4.65959941 -8.75 4 C-7.96109375 3.62875 -7.1721875 3.2575 -6.359375 2.875 C-4 2 -4 2 0 2 C0 1.34 0 0.68 0 0 Z " fill="#90BBCF" transform="translate(159,365)"/>
<path d="M0 0 C0.66 0 1.32 0 2 0 C2 1.32 2 2.64 2 4 C2.99 4.33 3.98 4.66 5 5 C-0.83799592 6.69832609 -5.93107371 7.25287193 -12 7 C-12 6.67 -12 6.34 -12 6 C-10.4221875 5.9071875 -10.4221875 5.9071875 -8.8125 5.8125 C-4.3441853 4.86023621 -2.98894713 3.33054108 0 0 Z " fill="#A0C5D8" transform="translate(529,312)"/>
<path d="M0 0 C-0.99 1.485 -0.99 1.485 -2 3 C-2.99 2.67 -3.98 2.34 -5 2 C-5 2.66 -5 3.32 -5 4 C-7.375 6.625 -7.375 6.625 -10 9 C-10.66 9 -11.32 9 -12 9 C-9.78369999 2.35109997 -7.25695033 -0.65972276 0 0 Z " fill="#8DB7CC" transform="translate(629,257)"/>
<path d="M0 0 C3.82350061 3.39866721 6.71296575 7.43530459 9 12 C9 12.99 9 13.98 9 15 C8.34 15 7.68 15 7 15 C7 14.34 7 13.68 7 13 C6.34 12.67 5.68 12.34 5 12 C2.65085508 9.65085508 2.26859643 8.04320554 1.375 4.875 C1.11460937 3.96492187 0.85421875 3.05484375 0.5859375 2.1171875 C0.39257812 1.41851562 0.19921875 0.71984375 0 0 Z " fill="#8EB9CE" transform="translate(510,191)"/>
<path d="M0 0 C2.64 0.33 5.28 0.66 8 1 C7.34 4.3 6.68 7.6 6 11 C5.67 11 5.34 11 5 11 C4.731875 9.9275 4.46375 8.855 4.1875 7.75 C3.13772173 4.43491072 2.25387672 2.56122354 0 0 Z " fill="#8DBCD5" transform="translate(354,269)"/>
<path d="M0 0 C2.88575819 0.39803561 3.82189513 0.79009069 5.75 3.0625 C6.36875 4.0215625 6.36875 4.0215625 7 5 C6.67 5.66 6.34 6.32 6 7 C4.68 7 3.36 7 2 7 C2 6.34 2 5.68 2 5 C0.68 4.34 -0.64 3.68 -2 3 C-1.34 2.01 -0.68 1.02 0 0 Z " fill="#8EC0DF" transform="translate(533,257)"/>
<path d="M0 0 C0.66 0 1.32 0 2 0 C2.33 2.97 2.66 5.94 3 9 C2.01 9.33 1.02 9.66 0 10 C0 13.63 0 17.26 0 21 C-0.33 21 -0.66 21 -1 21 C-1.10808032 13.90272572 -0.93854006 7.03905044 0 0 Z " fill="#B0CFDA" transform="translate(2,51)"/>
<path d="M0 0 C2.06346883 1.69736952 2.92141899 2.66883717 3.546875 5.3046875 C4.22694467 13.91018444 4.22694467 13.91018444 3 18 C0.79905037 14.69857556 0.79589656 13.80630045 0.9375 10 C1.04476882 6.8658849 1.00546443 5.01639328 0 2 C0 1.34 0 0.68 0 0 Z " fill="#A6CED9" transform="translate(657,289)"/>
<path d="M0 0 C0.66 0 1.32 0 2 0 C2.99 3.63 3.98 7.26 5 11 C4.34 11 3.68 11 3 11 C2.731875 10.401875 2.46375 9.80375 2.1875 9.1875 C1.01506533 7.02775192 -0.19369282 5.64209744 -2 4 C-1.34 4 -0.68 4 0 4 C-0.33 3.01 -0.66 2.02 -1 1 C-0.67 0.67 -0.34 0.34 0 0 Z " fill="#82B4CE" transform="translate(291,97)"/>
<path d="M0 0 C-4.55426184 2.66590937 -7.73946963 3.31563182 -13 3 C-13 2.01 -13 1.02 -13 0 C-11.39679026 -0.19551338 -9.79237014 -0.38111983 -8.1875 -0.5625 C-7.29417969 -0.66691406 -6.40085937 -0.77132812 -5.48046875 -0.87890625 C-3 -1 -3 -1 0 0 Z " fill="#93BDD3" transform="translate(70,45)"/>
<path d="M0 0 C0.54140625 0.47050781 1.0828125 0.94101563 1.640625 1.42578125 C4.39301472 3.26222671 6.49557207 3.68383854 9.75 4.1875 C10.73484375 4.34605469 11.7196875 4.50460938 12.734375 4.66796875 C13.48203125 4.77753906 14.2296875 4.88710938 15 5 C15 5.33 15 5.66 15 6 C6.06466877 7.59621451 6.06466877 7.59621451 1.875 5.25 C0 3 0 3 0 0 Z " fill="#98C1D4" transform="translate(150,15)"/>
<path d="M0 0 C0.66 0.33 1.32 0.66 2 1 C1.01 3.64 0.02 6.28 -1 9 C-1.33 8.34 -1.66 7.68 -2 7 C-3.98 7.33 -5.96 7.66 -8 8 C-7.67 7.34 -7.34 6.68 -7 6 C-6.01 6 -5.02 6 -4 6 C-3.71125 5.38125 -3.4225 4.7625 -3.125 4.125 C-2 2 -2 2 0 0 Z " fill="#8DBAD2" transform="translate(164,339)"/>
<path d="M0 0 C0.33 0 0.66 0 1 0 C1.33820166 1.5823006 1.67035939 3.16589375 2 4.75 C2.185625 5.63171875 2.37125 6.5134375 2.5625 7.421875 C3 10 3 10 3 14 C2.34 14 1.68 14 1 14 C-1.25068913 9.49862174 -1.24661958 5.93239162 -1 1 C-0.67 0.67 -0.34 0.34 0 0 Z " fill="#98BDCF" transform="translate(121,24)"/>
<path d="M0 0 C0.66 0 1.32 0 2 0 C2.33 0.99 2.66 1.98 3 3 C3.99 3.66 4.98 4.32 6 5 C5.01 5.33 4.02 5.66 3 6 C3 6.99 3 7.98 3 9 C2.01 9 1.02 9 0 9 C-1.125 2.25 -1.125 2.25 0 0 Z " fill="#78B9E0" transform="translate(501,300)"/>
<path d="M0 0 C4.98862849 -0.29344873 7.96229058 -0.05887078 12 3 C12 3.33 12 3.66 12 4 C7.53160785 4.21278058 4.17737474 3.59138085 0 2 C0 1.34 0 0.68 0 0 Z " fill="#79B7E2" transform="translate(585,258)"/>
<path d="M0 0 C4.38081466 4.02561348 7.78693637 7.73302438 8.1875 13.875 C8.125625 14.57625 8.06375 15.2775 8 16 C5.5615972 13.5615972 4.41079629 11.0864312 2.875 8 C2.33617187 6.9275 1.79734375 5.855 1.2421875 4.75 C0 2 0 2 0 0 Z " fill="#A8C8D5" transform="translate(474,184)"/>
<path d="M0 0 C3.35281942 3.08812315 5.82230601 5.52476282 7 10 C6.67 10.99 6.34 11.98 6 13 C6 12.34 6 11.68 6 11 C5.34 11 4.68 11 4 11 C2.5393715 8.35261084 2 7.10551666 2 4 C1.34 4 0.68 4 0 4 C0 2.68 0 1.36 0 0 Z " fill="#A2C4D6" transform="translate(598,259)"/>
<path d="M0 0 C2.76222843 2.38556092 3.98658817 4.49203597 5 8 C5.15512216 10.69212002 5.09156216 13.29891626 5 16 C4.67 16 4.34 16 4 16 C3.32815382 13.89748139 2.66269032 11.79292237 2 9.6875 C1.443125 7.92986328 1.443125 7.92986328 0.875 6.13671875 C0 3 0 3 0 0 Z " fill="#9FC4D3" transform="translate(273,133)"/>
<path d="M0 0 C0.66 0.33 1.32 0.66 2 1 C1.71758359 2.46015291 1.42373386 3.91809793 1.125 5.375 C0.96257812 6.18710938 0.80015625 6.99921875 0.6328125 7.8359375 C0 10 0 10 -2 12 C-3.12377697 8.69564916 -2.89554742 6.9493138 -1.5625 3.75 C-1.27503906 3.04359375 -0.98757813 2.3371875 -0.69140625 1.609375 C-0.46324219 1.07828125 -0.23507812 0.5471875 0 0 Z " fill="#97C0D5" transform="translate(340,114)"/>
<path d="M0 0 C0.99 0.33 1.98 0.66 3 1 C3.765625 2.70703125 3.765625 2.70703125 4.25 4.8125 C4.50523438 5.84310547 4.50523438 5.84310547 4.765625 6.89453125 C5.02170666 9.19499821 4.69015367 10.80629727 4 13 C3.34 13 2.68 13 2 13 C1.93941406 12.31292969 1.87882812 11.62585937 1.81640625 10.91796875 C1.73261719 10.01691406 1.64882812 9.11585937 1.5625 8.1875 C1.48128906 7.29417969 1.40007812 6.40085937 1.31640625 5.48046875 C1.06510233 2.87256441 1.06510233 2.87256441 0 0 Z " fill="#8CB5CA" transform="translate(75,21)"/>
<path d="M0 0 C3.25669165 3.08065427 6.10679924 5.89806503 8 10 C7.6875 12.3125 7.6875 12.3125 7 14 C6.67 13.01 6.34 12.02 6 11 C5.54625 10.54625 5.0925 10.0925 4.625 9.625 C2.60485083 7.60485083 1.32565582 5.5250587 0 3 C0 2.01 0 1.02 0 0 Z " fill="#A1C7D5" transform="translate(429,260)"/>
<path d="M0 0 C-0.33 1.65 -0.66 3.3 -1 5 C-3.31 5 -5.62 5 -8 5 C-8.33 4.34 -8.66 3.68 -9 3 C-2.25 0 -2.25 0 0 0 Z " fill="#91C2D9" transform="translate(202,251)"/>
<path d="M0 0 C1.86911602 2.74870003 1.99426628 4.1070295 1.8125 7.5 C1.01482633 10.93613274 0.16325931 12.34111524 -2 15 C-1.85973717 12.68715544 -1.71264442 10.37472409 -1.5625 8.0625 C-1.48128906 6.77472656 -1.40007812 5.48695312 -1.31640625 4.16015625 C-1 1 -1 1 0 0 Z " fill="#92BDD5" transform="translate(365,119)"/>
<path d="M0 0 C0.66 0.66 1.32 1.32 2 2 C1.625 4.625 1.625 4.625 1 7 C0.34 6.34 -0.32 5.68 -1 5 C-1.99 6.485 -1.99 6.485 -3 8 C-3.66 8 -4.32 8 -5 8 C-3.8141763 4.62496331 -2.72426311 2.35277269 0 0 Z " fill="#85B5CC" transform="translate(126,16)"/>
<path d="M0 0 C0.99 0.33 1.98 0.66 3 1 C3 1.66 3 2.32 3 3 C4.423125 3.185625 4.423125 3.185625 5.875 3.375 C9 4 9 4 11 6 C10.67 6.99 10.34 7.98 10 9 C8.51444617 8.07265428 7.03672494 7.13275187 5.5625 6.1875 C4.73878906 5.66542969 3.91507812 5.14335937 3.06640625 4.60546875 C1 3 1 3 0 0 Z " fill="#97C2D8" transform="translate(77,358)"/>
<path d="M0 0 C0.99 0.33 1.98 0.66 3 1 C2.67 1.66 2.34 2.32 2 3 C2.495 3.825 2.99 4.65 3.5 5.5 C3.995 6.325 4.49 7.15 5 8 C4.67 8.66 4.34 9.32 4 10 C2 8.9375 2 8.9375 0 7 C-0.25 3.3125 -0.25 3.3125 0 0 Z M-1 8 C1 9 1 9 1 9 Z " fill="#95C2D7" transform="translate(594,291)"/>
<path d="M0 0 C1.32 0.66 2.64 1.32 4 2 C3.34 4.31 2.68 6.62 2 9 C1.34 7.68 0.68 6.36 0 5 C-0.99 5.495 -0.99 5.495 -2 6 C-1.125 1.125 -1.125 1.125 0 0 Z " fill="#91C2D9" transform="translate(78,282)"/>
<path d="M0 0 C2.89932357 2.39509338 3.50168276 4.31245243 4 8 C2.35 8.33 0.7 8.66 -1 9 C-1.33 8.34 -1.66 7.68 -2 7 C-1.01 7 -0.02 7 1 7 C0.67 4.69 0.34 2.38 0 0 Z " fill="#98BDCE" transform="translate(656,264)"/>
<path d="M0 0 C3.63 0 7.26 0 11 0 C11 0.33 11 0.66 11 1 C9.02 1.33 7.04 1.66 5 2 C5.66 2.66 6.32 3.32 7 4 C5.35 4.33 3.7 4.66 2 5 C1.67 4.34 1.34 3.68 1 3 C0.67 2.67 0.34 2.34 0 2 C0 1.34 0 0.68 0 0 Z " fill="#79B8DD" transform="translate(630,257)"/>
<path d="M0 0 C0.66 0.33 1.32 0.66 2 1 C2.40729228 3.32156597 2.74438677 5.6568787 3 8 C3.66 8 4.32 8 5 8 C4.34 9.32 3.68 10.64 3 12 C2.29773859 10.75823305 1.61370891 9.50614401 0.9375 8.25 C0.36322266 7.20585937 0.36322266 7.20585937 -0.22265625 6.140625 C-1.1312406 3.63859372 -0.88336837 2.4667645 0 0 Z " fill="#91BDD3" transform="translate(466,163)"/>
<path d="M0 0 C0.66 0 1.32 0 2 0 C2.99 3.63 3.98 7.26 5 11 C4.01 11.495 4.01 11.495 3 12 C0.58314288 7.77050005 -0.34833144 4.87664009 0 0 Z " fill="#90BBD3" transform="translate(283,160)"/>
<path d="M0 0 C2.18975773 3.28463659 2.99806563 6.20696275 4 10 C-0.67692308 8.52307692 -0.67692308 8.52307692 -2.3125 5.875 C-2.539375 5.25625 -2.76625 4.6375 -3 4 C-2.01 4 -1.02 4 0 4 C0 2.68 0 1.36 0 0 Z " fill="#9AC3DA" transform="translate(30,120)"/>
<path d="M0 0 C0.99 0.66 1.98 1.32 3 2 C0.38372835 4.61627165 -1.35265021 4.77669287 -5 5 C-6.875 3.5625 -6.875 3.5625 -8 2 C-6.865625 1.855625 -5.73125 1.71125 -4.5625 1.5625 C-1.19222799 1.38828522 -1.19222799 1.38828522 0 0 Z " fill="#8ABEDE" transform="translate(173,39)"/>
<path d="M0 0 C1.32 0.99 2.64 1.98 4 3 C3.67 3.66 3.34 4.32 3 5 C3.66 5.33 4.32 5.66 5 6 C2.525 7.485 2.525 7.485 0 9 C0 8.01 0 7.02 0 6 C0.66 6 1.32 6 2 6 C2 5.34 2 4.68 2 4 C1.01 4 0.02 4 -1 4 C-0.67 2.68 -0.34 1.36 0 0 Z " fill="#8DC0D8" transform="translate(362,306)"/>
<path d="M0 0 C4.24822374 0.47202486 6.19989709 2.96655518 9 6 C8.67 6.99 8.34 7.98 8 9 C6.66079162 7.88200014 5.32877444 6.75538103 4 5.625 C2.88625 4.68527344 2.88625 4.68527344 1.75 3.7265625 C1.1725 3.15679687 0.595 2.58703125 0 2 C0 1.34 0 0.68 0 0 Z " fill="#95BDCE" transform="translate(159,261)"/>
<path d="M0 0 C-2.51699845 2.51699845 -4.57554146 3.10964078 -8 4 C-10.375 3.625 -10.375 3.625 -12 3 C-7.89542386 0.01485372 -5.02254631 -0.2954439 0 0 Z " fill="#A0C5DA" transform="translate(130,185)"/>
<path d="M0 0 C0.33 0 0.66 0 1 0 C1.12375 0.78375 1.2475 1.5675 1.375 2.375 C1.79117993 5.14057822 1.79117993 5.14057822 4 7 C3.34 7 2.68 7 2 7 C1.67 7.99 1.34 8.98 1 10 C0.67 9.34 0.34 8.68 0 8 C-0.66 8 -1.32 8 -2 8 C-1.47731534 5.23723823 -0.89130413 2.6739124 0 0 Z " fill="#8DBED9" transform="translate(323,165)"/>
<path d="M0 0 C2.475 0.99 2.475 0.99 5 2 C3.02 2.99 3.02 2.99 1 4 C1.33 5.98 1.66 7.96 2 10 C1.01 10 0.02 10 -1 10 C-2.46726798 6.18510326 -1.43336419 3.70988378 0 0 Z " fill="#9AC4D4" transform="translate(490,146)"/>
<path d="M0 0 C4.08378283 0.74250597 8.01939223 1.82923301 12 3 C12 3.33 12 3.66 12 4 C3.42857143 4.14285714 3.42857143 4.14285714 0 3 C0 2.01 0 1.02 0 0 Z " fill="#9DC4D4" transform="translate(103,352)"/>
<path d="M0 0 C0.93423645 3.01031744 1.04449911 3.86650268 0 7 C-3.69541586 7.95024979 -6.30458414 7.95024979 -10 7 C-10 6.67 -10 6.34 -10 6 C-8.72125 5.7525 -7.4425 5.505 -6.125 5.25 C-2.73252682 4.48009414 -2.73252682 4.48009414 -0.5 1.875 C-0.335 1.25625 -0.17 0.6375 0 0 Z " fill="#A8CDDB" transform="translate(590,277)"/>
<path d="M0 0 C0 0.33 0 0.66 0 1 C-1.65 1 -3.3 1 -5 1 C-5 1.66 -5 2.32 -5 3 C-8 2 -8 2 -10 1 C-10 0.34 -10 -0.32 -10 -1 C-6.18510326 -2.46726798 -3.70988378 -1.43336419 0 0 Z " fill="#90C0D9" transform="translate(429,259)"/>
<path d="M0 0 C0.28875 0.61875 0.5775 1.2375 0.875 1.875 C1.93720042 4.13325765 1.93720042 4.13325765 4 6 C1.03 5.67 -1.94 5.34 -5 5 C-4.67 3.68 -4.34 2.36 -4 1 C-2 0 -2 0 0 0 Z " fill="#79B1CE" transform="translate(192,210)"/>
<path d="M0 0 C1.33641852 0.32074044 2.66869885 0.65864073 4 1 C5.8253125 1.4640625 5.8253125 1.4640625 7.6875 1.9375 C8.780625 2.288125 9.87375 2.63875 11 3 C11.33 3.66 11.66 4.32 12 5 C7.6822542 4.49202991 3.96697886 3.80317221 0 2 C0 1.34 0 0.68 0 0 Z " fill="#A7C7D5" transform="translate(68,184)"/>
<path d="M0 0 C-3.58752742 1.86551426 -7.27812193 3.42535928 -11 5 C-11 4.01 -11 3.02 -11 2 C-6.89657963 -0.38570952 -4.61380251 -1.49270081 0 0 Z " fill="#A1C2D3" transform="translate(211,270)"/>
<path d="M0 0 C0.68359375 1.734375 0.68359375 1.734375 1 4 C-0.21484375 6.140625 -0.21484375 6.140625 -1.9375 8.25 C-2.50339844 8.95640625 -3.06929688 9.6628125 -3.65234375 10.390625 C-4.31943359 11.18726563 -4.31943359 11.18726563 -5 12 C-5 8.76138705 -4.3749149 6.90259811 -3 4 C-2.34 3.67 -1.68 3.34 -1 3 C-0.67 2.01 -0.34 1.02 0 0 Z " fill="#9AC2D6" transform="translate(72,260)"/>
<path d="M0 0 C0.99 0 1.98 0 3 0 C2.67 1.32 2.34 2.64 2 4 C1.01 4 0.02 4 -1 4 C-1.99 5.485 -1.99 5.485 -3 7 C-3.66 7 -4.32 7 -5 7 C-4.34 5.35 -3.68 3.7 -3 2 C-2.01 2 -1.02 2 0 2 C0 1.34 0 0.68 0 0 Z " fill="#89BED8" transform="translate(157,214)"/>
<path d="M0 0 C2.44839588 3.67259383 4 6.54648201 4 11 C4.66 11 5.32 11 6 11 C6 11.66 6 12.32 6 13 C4.125 12.4375 4.125 12.4375 2 11 C0.55760783 7.10554113 0 4.16477964 0 0 Z " fill="#A3C8DE" transform="translate(314,164)"/>
<path d="M0 0 C0.66 0.33 1.32 0.66 2 1 C1.67 2.32 1.34 3.64 1 5 C-1.60582371 5.93065133 -2.64198224 6.14917407 -5.25 5.0625 C-5.8275 4.711875 -6.405 4.36125 -7 4 C-5.68 4 -4.36 4 -3 4 C-3 3.34 -3 2.68 -3 2 C-2.01 1.34 -1.02 0.68 0 0 Z " fill="#9BC5D8" transform="translate(134,159)"/>
<path d="M0 0 C0.33 0 0.66 0 1 0 C1.33 4.29 1.66 8.58 2 13 C0.02 13.99 0.02 13.99 -2 15 C-1.34 10.05 -0.68 5.1 0 0 Z " fill="#92BFCF" transform="translate(485,106)"/>
<path d="M0 0 C0.95465783 2.16967689 1.14401212 3.56328793 0.3984375 5.82421875 C-0.35870385 7.5684743 -1.17609198 9.28627131 -2 11 C-2.66 11 -3.32 11 -4 11 C-3.48964169 6.6109185 -2.47785723 3.66291938 0 0 Z " fill="#81AEC6" transform="translate(383,73)"/>
<path d="M0 0 C0.93423645 3.01031744 1.04449911 3.86650268 0 7 C-0.66 7 -1.32 7 -2 7 C-2.33 7.99 -2.66 8.98 -3 10 C-4 7 -4 7 -3.22265625 5.17578125 C-2.1484375 3.45052083 -1.07421875 1.72526042 0 0 Z " fill="#96C1D5" transform="translate(65,272)"/>
<path d="M0 0 C2.375 0.3125 2.375 0.3125 5 1 C5.66 1.99 6.32 2.98 7 4 C6.67 4.66 6.34 5.32 6 6 C3.37812506 4.95125002 2.20628639 4.35068687 0.75 1.875 C0.5025 1.25625 0.255 0.6375 0 0 Z " fill="#95C1D4" transform="translate(358,257)"/>
<path d="M0 0 C2.01822917 0.06510417 4.03645833 0.13020833 6.0546875 0.1953125 C5.7246875 1.8453125 5.3946875 3.4953125 5.0546875 5.1953125 C4.7246875 4.2053125 4.3946875 3.2153125 4.0546875 2.1953125 C1.4146875 2.1953125 -1.2253125 2.1953125 -3.9453125 2.1953125 C-1.9453125 0.1953125 -1.9453125 0.1953125 0 0 Z " fill="#9CC8DF" transform="translate(569.9453125,254.8046875)"/>
<path d="M0 0 C0.33 0 0.66 0 1 0 C0.67 3.96 0.34 7.92 0 12 C-2 10 -2 10 -2.01171875 7.87109375 C-1.90472656 7.06800781 -1.79773438 6.26492187 -1.6875 5.4375 C-1.58824219 4.63183594 -1.48898438 3.82617188 -1.38671875 2.99609375 C-1 1 -1 1 0 0 Z " fill="#77B2CB" transform="translate(170,228)"/>
<path d="M0 0 C1 2 1 2 0.44140625 4.1640625 C0.15136719 4.97617188 -0.13867188 5.78828125 -0.4375 6.625 C-0.72496094 7.44226563 -1.01242187 8.25953125 -1.30859375 9.1015625 C-1.53675781 9.72804687 -1.76492188 10.35453125 -2 11 C-2.33 11 -2.66 11 -3 11 C-3.36923077 3.49230769 -3.36923077 3.49230769 -1.5 1 C-1.005 0.67 -0.51 0.34 0 0 Z " fill="#A6CCDB" transform="translate(362,136)"/>
<path d="M0 0 C1.5 1.375 1.5 1.375 3 3 C3 3.66 3 4.32 3 5 C4.32 5.33 5.64 5.66 7 6 C6.67 6.66 6.34 7.32 6 8 C4.68 8 3.36 8 2 8 C1.34 5.36 0.68 2.72 0 0 Z " fill="#7EB3CB" transform="translate(16,135)"/>
<path d="M0 0 C0.99 0 1.98 0 3 0 C5.27678571 8.03571429 5.27678571 8.03571429 4 12 C3.3291288 10.3767313 2.66342971 8.75132422 2 7.125 C1.62875 6.22007813 1.2575 5.31515625 0.875 4.3828125 C0 2 0 2 0 0 Z " fill="#A5CAD9" transform="translate(262,104)"/>
<path d="M0 0 C0.66 0 1.32 0 2 0 C2.22174933 1.45635371 2.42698698 2.91522956 2.625 4.375 C2.74101562 5.18710938 2.85703125 5.99921875 2.9765625 6.8359375 C2.98429687 7.55007812 2.99203125 8.26421875 3 9 C2.34 9.66 1.68 10.32 1 11 C-0.17571451 7.32589215 -0.07366746 3.83070817 0 0 Z " fill="#99BECF" transform="translate(22,93)"/>
<path d="M0 0 C1.98 0.99 1.98 0.99 4 2 C3.25 6.75 3.25 6.75 1 9 C0.67 6.03 0.34 3.06 0 0 Z " fill="#87B7D1" transform="translate(186,333)"/>
<path d="M0 0 C0.33 0.99 0.66 1.98 1 3 C1.99 3.33 2.98 3.66 4 4 C4.12375 4.804375 4.2475 5.60875 4.375 6.4375 C4.684375 7.7059375 4.684375 7.7059375 5 9 C5.66 9.33 6.32 9.66 7 10 C6.34 10.66 5.68 11.32 5 12 C4.15556432 10.75747321 3.3248542 9.5056114 2.5 8.25 C1.80390625 7.20585937 1.80390625 7.20585937 1.09375 6.140625 C0 4 0 4 0 0 Z " fill="#9CC0D1" transform="translate(613,300)"/>
<path d="M0 0 C2.64 0 5.28 0 8 0 C8.99 1.98 9.98 3.96 11 6 C9.35 6 7.7 6 6 6 C6.33 4.35 6.66 2.7 7 1 C4.69 1 2.38 1 0 1 C0 0.67 0 0.34 0 0 Z " fill="#A4CADC" transform="translate(619,298)"/>
<path d="M0 0 C0.99 1.485 0.99 1.485 2 3 C2.66 3 3.32 3 4 3 C4 4.98 4 6.96 4 9 C3.01 8.67 2.02 8.34 1 8 C-0.35439668 5.29120665 -0.06501451 2.99066732 0 0 Z " fill="#97C1D6" transform="translate(494,295)"/>
<path d="M0 0 C0.33 0 0.66 0 1 0 C1 4.29 1 8.58 1 13 C0.01 12.01 -0.98 11.02 -2 10 C-1.85546875 7.51953125 -1.85546875 7.51953125 -1.1875 4.8125 C-0.97480469 3.91144531 -0.76210938 3.01039063 -0.54296875 2.08203125 C-0.36378906 1.39496094 -0.18460937 0.70789063 0 0 Z " fill="#74B9E0" transform="translate(372,279)"/>
<path d="M0 0 C2.64 0 5.28 0 8 0 C8 0.66 8 1.32 8 2 C3.545 2.495 3.545 2.495 -1 3 C-0.67 2.01 -0.34 1.02 0 0 Z " fill="#96C0D2" transform="translate(425,273)"/>
<path d="M0 0 C-2.39763185 2.39763185 -3.33273498 2.34280586 -6.625 2.625 C-7.44226563 2.69976562 -8.25953125 2.77453125 -9.1015625 2.8515625 C-9.72804688 2.90054687 -10.35453125 2.94953125 -11 3 C-7.65817252 -1.0165182 -4.96805907 -0.24433077 0 0 Z " fill="#88B8CE" transform="translate(350,265)"/>
<path d="M0 0 C3.81684226 1.55500981 6.19195732 4.03595495 9 7 C8.67 7.66 8.34 8.32 8 9 C6.65826597 8.07456291 5.32679841 7.13422595 4 6.1875 C3.2575 5.66542969 2.515 5.14335937 1.75 4.60546875 C1.1725 4.07566406 0.595 3.54585938 0 3 C0 2.01 0 1.02 0 0 Z " fill="#9CC0D3" transform="translate(296,258)"/>
<path d="M0 0 C3.6 5.4 3.6 5.4 5 8 C4.67 8.66 4.34 9.32 4 10 C3.01 9.34 2.02 8.68 1 8 C1 7.01 1 6.02 1 5 C0.34 5 -0.32 5 -1 5 C-0.67 3.35 -0.34 1.7 0 0 Z " fill="#9CBFD0" transform="translate(170,238)"/>
<path d="M0 0 C1 3 1 3 0.22265625 5.04296875 C-0.16019531 5.75066406 -0.54304688 6.45835937 -0.9375 7.1875 C-1.31777344 7.90292969 -1.69804687 8.61835938 -2.08984375 9.35546875 C-2.54037109 10.16951172 -2.54037109 10.16951172 -3 11 C-4.06192476 7.73635123 -4.07454186 7.17280159 -2.625 3.8125 C-1 1 -1 1 0 0 Z " fill="#88B6CB" transform="translate(353,162)"/>
<path d="M0 0 C0.66 0 1.32 0 2 0 C1.75 2.875 1.75 2.875 1 6 C-1.0625 7.375 -1.0625 7.375 -3 8 C-1.125 1.125 -1.125 1.125 0 0 Z " fill="#A3C6D8" transform="translate(171,112)"/>
<path d="M0 0 C1.32 0 2.64 0 4 0 C4.309375 0.78375 4.61875 1.5675 4.9375 2.375 C5.92875038 4.92330128 5.92875038 4.92330128 7 7 C6.01 8.485 6.01 8.485 5 10 C3.35 6.7 1.7 3.4 0 0 Z " fill="#A4C8D6" transform="translate(170,44)"/>
<path d="M0 0 C0.99 0.33 1.98 0.66 3 1 C0.03 4.96 0.03 4.96 -3 9 C-3.33 8.01 -3.66 7.02 -4 6 C-2.0625 2.8125 -2.0625 2.8125 0 0 Z " fill="#8CB2C2" transform="translate(27,42)"/>
<path d="M0 0 C2.475 0.495 2.475 0.495 5 1 C5.33 1.99 5.66 2.98 6 4 C4.68 4.33 3.36 4.66 2 5 C1.34 3.35 0.68 1.7 0 0 Z " fill="#7DB2CF" transform="translate(176,27)"/>
<path d="M0 0 C0.99 0 1.98 0 3 0 C2.34 1.65 1.68 3.3 1 5 C0.34 5 -0.32 5 -1 5 C-1.66 6.32 -2.32 7.64 -3 9 C-3.33 8.01 -3.66 7.02 -4 6 C-3.34 6 -2.68 6 -2 6 C-1.7834375 5.071875 -1.7834375 5.071875 -1.5625 4.125 C-1 2 -1 2 0 0 Z " fill="#93C0D1" transform="translate(508,132)"/>
<path d="M0 0 C0.93423645 3.01031744 1.04449911 3.86650268 0 7 C-0.66 7 -1.32 7 -2 7 C-2.33 8.32 -2.66 9.64 -3 11 C-3.66 11 -4.32 11 -5 11 C-3.55049545 7.2089881 -1.84827434 3.6125362 0 0 Z " fill="#A3C5D3" transform="translate(167,122)"/>
<path d="M0 0 C0.66 0 1.32 0 2 0 C5.125 6.625 5.125 6.625 4 10 C1.80902348 6.6659053 0.56545837 3.95820859 0 0 Z " fill="#84B1C4" transform="translate(254,80)"/>
<path d="M0 0 C1.98 0.66 3.96 1.32 6 2 C4.68 2.99 3.36 3.98 2 5 C0.68 4.34 -0.64 3.68 -2 3 C-1.34 2.01 -0.68 1.02 0 0 Z " fill="#94C4DC" transform="translate(173,24)"/>
<path d="M0 0 C4.455 0.99 4.455 0.99 9 2 C8.67 2.66 8.34 3.32 8 4 C2.25 3.125 2.25 3.125 0 2 C0 1.34 0 0.68 0 0 Z " fill="#95B9C8" transform="translate(330,313)"/>
<path d="M0 0 C0.66 1.32 1.32 2.64 2 4 C2.99 4 3.98 4 5 4 C4.01 5.485 4.01 5.485 3 7 C2.01 7 1.02 7 0 7 C-0.33 7.66 -0.66 8.32 -1 9 C-0.67 6.03 -0.34 3.06 0 0 Z " fill="#A0C9DF" transform="translate(178,310)"/>
<path d="M0 0 C3.3 0 6.6 0 10 0 C8.35 1.32 6.7 2.64 5 4 C5 3.34 5 2.68 5 2 C3.35 2 1.7 2 0 2 C0 1.34 0 0.68 0 0 Z " fill="#73AED4" transform="translate(272,306)"/>
<path d="M0 0 C4.42857143 5.14285714 4.42857143 5.14285714 5 9 C3.0625 8.4375 3.0625 8.4375 1 7 C0.25 3.375 0.25 3.375 0 0 Z " fill="#A1C2D4" transform="translate(508,296)"/>
<path d="M0 0 C1.46726798 3.81489674 0.43336419 6.29011622 -1 10 C-1.66 10 -2.32 10 -3 10 C-2.49287967 6.28111761 -1.88391785 3.26545761 0 0 Z " fill="#9BC7D7" transform="translate(59,284)"/>
<path d="M0 0 C0.1875 2.875 0.1875 2.875 0 6 C-0.99 6.66 -1.98 7.32 -3 8 C-3 5.69 -3 3.38 -3 1 C-1 0 -1 0 0 0 Z " fill="#78B9E0" transform="translate(620,268)"/>
<path d="M0 0 C2.75 -0.3125 2.75 -0.3125 6 0 C8.375 2.5 8.375 2.5 10 5 C5.75354935 5 3.61475228 3.18249194 0 1 C0 0.67 0 0.34 0 0 Z " fill="#98C6D9" transform="translate(414,267)"/>
<path d="M0 0 C0.33 0.66 0.66 1.32 1 2 C1.99 2 2.98 2 4 2 C3.67 3.32 3.34 4.64 3 6 C1.68 6.33 0.36 6.66 -1 7 C-0.67 4.69 -0.34 2.38 0 0 Z " fill="#76B1CD" transform="translate(210,234)"/>
<path d="M0 0 C0.66 0.33 1.32 0.66 2 1 C1.01 2.98 0.02 4.96 -1 7 C-1.33 6.34 -1.66 5.68 -2 5 C-2.66 5 -3.32 5 -4 5 C-4.33 4.01 -4.66 3.02 -5 2 C-4.01 1.67 -3.02 1.34 -2 1 C-1.67 1.33 -1.34 1.66 -1 2 C-0.67 1.34 -0.34 0.68 0 0 Z " fill="#A3CBE1" transform="translate(173,223)"/>
<path d="M0 0 C2.64 0 5.28 0 8 0 C8 0.66 8 1.32 8 2 C6.35 2.66 4.7 3.32 3 4 C2.67 3.01 2.34 2.02 2 1 C1.34 0.67 0.68 0.34 0 0 Z " fill="#93BFD7" transform="translate(97,169)"/>
<path d="M0 0 C2.97 0.495 2.97 0.495 6 1 C3.51047079 3.66735273 1.36591866 5.55746343 -2 7 C-2 6.01 -2 5.02 -2 4 C-1.34 3.67 -0.68 3.34 0 3 C0 2.01 0 1.02 0 0 Z " fill="#A2C5D7" transform="translate(499,140)"/>
<path d="M0 0 C2.97 0 5.94 0 9 0 C7.515 1.485 7.515 1.485 6 3 C2.8125 2.6875 2.8125 2.6875 0 2 C0 1.34 0 0.68 0 0 Z " fill="#84B1CA" transform="translate(466,130)"/>
<path d="M0 0 C6.875 3.75 6.875 3.75 8 6 C5.21788056 5.62403791 3.4120716 5.32681541 1.1875 3.5625 C0 2 0 2 0 0 Z " fill="#95BECD" transform="translate(90,344)"/>
<path d="M0 0 C1.39195915 4.17587745 -0.17676781 6.13474776 -2 10 C-2.33 10 -2.66 10 -3 10 C-3.36923077 3.47692308 -3.36923077 3.47692308 -1.5 1.0625 C-1.005 0.711875 -0.51 0.36125 0 0 Z " fill="#9CC4D9" transform="translate(341,197)"/>
<path d="M0 0 C0.66 0 1.32 0 2 0 C2 4 2 4 0 7 C-2 6 -2 6 -3 4 C-2.67 3.34 -2.34 2.68 -2 2 C-1.34 2 -0.68 2 0 2 C0 1.34 0 0.68 0 0 Z " fill="#8CBEDD" transform="translate(156,165)"/>
<path d="M0 0 C0.33 0 0.66 0 1 0 C1.36923077 5.53846154 1.36923077 5.53846154 -0.5 7.875 C-1.2425 8.431875 -1.2425 8.431875 -2 9 C-2.33 8.34 -2.66 7.68 -3 7 C-2.06421005 4.64018187 -1.06652192 2.30368736 0 0 Z " fill="#9BC1D8" transform="translate(328,151)"/>
<path d="M0 0 C1.32 0.33 2.64 0.66 4 1 C4.33 2.65 4.66 4.3 5 6 C5.66 6 6.32 6 7 6 C6.67 6.99 6.34 7.98 6 9 C4.02 6.03 2.04 3.06 0 0 Z " fill="#A1C6D5" transform="translate(21,148)"/>
<path d="M0 0 C0.66 0 1.32 0 2 0 C3.32229189 2.64458379 3.09677194 4.67761301 3.0625 7.625 C3.05347656 8.62789062 3.04445313 9.63078125 3.03515625 10.6640625 C3.02355469 11.43492188 3.01195312 12.20578125 3 13 C2.67 13 2.34 13 2 13 C1.93941406 12.39671875 1.87882812 11.7934375 1.81640625 11.171875 C1.69072266 9.97304687 1.69072266 9.97304687 1.5625 8.75 C1.48128906 7.96109375 1.40007812 7.1721875 1.31640625 6.359375 C1.02365007 4.17635361 0.57935581 2.1226818 0 0 Z " fill="#77AAC1" transform="translate(484,102)"/>
<path d="M0 0 C1.32 0.33 2.64 0.66 4 1 C3.67 3.64 3.34 6.28 3 9 C0.87491756 5.81237635 0.4979837 3.73487777 0 0 Z " fill="#90BCD0" transform="translate(259,93)"/>
<path d="M0 0 C3.3 0 6.6 0 10 0 C10.33 1.65 10.66 3.3 11 5 C10.484375 4.525625 9.96875 4.05125 9.4375 3.5625 C6.33217325 1.57190593 3.63367496 1.34939182 0 1 C0 0.67 0 0.34 0 0 Z " fill="#9CBFD3" transform="translate(37,38)"/>
<path d="M0 0 C0.66 1.32 1.32 2.64 2 4 C0.35 5.65 -1.3 7.3 -3 9 C-2.30058404 5.85262818 -1.23921302 2.97411124 0 0 Z " fill="#95C1D4" transform="translate(185,340)"/>
<path d="M0 0 C0.99 0.33 1.98 0.66 3 1 C2.34 2.98 1.68 4.96 1 7 C0.34 7 -0.32 7 -1 7 C-0.7525 6.1028125 -0.7525 6.1028125 -0.5 5.1875 C0.1114124 2.88655664 0.1114124 2.88655664 0 0 Z " fill="#91BFD9" transform="translate(83,276)"/>
<path d="M0 0 C1.32 0.66 2.64 1.32 4 2 C3.67 2.66 3.34 3.32 3 4 C2.67 3.67 2.34 3.34 2 3 C1.67 3.66 1.34 4.32 1 5 C0.01 4.67 -0.98 4.34 -2 4 C-1.34 2.68 -0.68 1.36 0 0 Z " fill="#7CB0CB" transform="translate(172,247)"/>
<path d="M0 0 C-0.66 1.32 -1.32 2.64 -2 4 C-2.66 4 -3.32 4 -4 4 C-4.33 4.99 -4.66 5.98 -5 7 C-5.33 5.68 -5.66 4.36 -6 3 C-2.25 0 -2.25 0 0 0 Z " fill="#81B0C9" transform="translate(177,219)"/>
<path d="M0 0 C2.31 0 4.62 0 7 0 C7 0.66 7 1.32 7 2 C5.35 1.67 3.7 1.34 2 1 C2 1.66 2 2.32 2 3 C0.68 3.33 -0.64 3.66 -2 4 C-1.34 2.68 -0.68 1.36 0 0 Z " fill="#7FB0CA" transform="translate(169,200)"/>
<path d="M0 0 C0.99 0 1.98 0 3 0 C4.16552619 4.19589427 4.08954032 4.82091936 2 9 C1.34 6.03 0.68 3.06 0 0 Z " fill="#A9CBDA" transform="translate(287,174)"/>
<path d="M0 0 C2.76223278 2.76223278 2.57856291 5.20706617 3 9 C0.11749016 6.61879622 -0.61038985 4.70129644 -1 1 C-0.67 0.67 -0.34 0.34 0 0 Z " fill="#A7CAD7" transform="translate(14,130)"/>
<path d="M0 0 C0.66 0 1.32 0 2 0 C2.33 2.64 2.66 5.28 3 8 C1.68 7.34 0.36 6.68 -1 6 C-0.67 4.02 -0.34 2.04 0 0 Z " fill="#79ADCB" transform="translate(298,118)"/>
<path d="M0 0 C1.32 0.33 2.64 0.66 4 1 C4.33 2.65 4.66 4.3 5 6 C4.34 6 3.68 6 3 6 C3 5.34 3 4.68 3 4 C2.01 4 1.02 4 0 4 C0 2.68 0 1.36 0 0 Z " fill="#74AFCF" transform="translate(26,119)"/>
<path d="M0 0 C0.66 0.99 1.32 1.98 2 3 C-1.3 2.67 -4.6 2.34 -8 2 C-4.79191085 -0.1387261 -3.72301503 -0.47730962 0 0 Z " fill="#A0C9D8" transform="translate(140,45)"/>
<path d="M0 0 C0.99 0.495 0.99 0.495 2 1 C2.73075648 3.3140622 3.40138258 5.64828869 4 8 C2.68 7.34 1.36 6.68 0 6 C0 4.02 0 2.04 0 0 Z " fill="#A3C9DB" transform="translate(189,37)"/>
</svg>
