<svg width="137" height="28" viewBox="0 0 137 28" fill="none" xmlns="http://www.w3.org/2000/svg">
<g clip-path="url(#clip0_39_37)">
<rect width="27.792" height="27.792" rx="6" fill="#0B68F7"/>
<path d="M13.6748 6.34898L13.6758 6.34995L13.6777 6.34898L13.6768 6.34995C13.885 6.35317 14.0869 6.42218 14.252 6.54917C14.4174 6.67646 14.5374 6.85406 14.5938 7.05503L17.4717 17.2904L18.8877 13.5169C18.9568 13.3326 19.0804 13.1731 19.2422 13.0609C19.4039 12.9488 19.5962 12.8892 19.793 12.889H42.1826C42.4391 12.8891 42.6848 12.9909 42.8662 13.1722C43.0477 13.3537 43.1504 13.6002 43.1504 13.8568C43.1503 14.1133 43.0476 14.359 42.8662 14.5404C42.6848 14.7217 42.4391 14.8235 42.1826 14.8236H20.4639L18.2461 20.7367C18.1745 20.9274 18.0448 21.0909 17.875 21.2035C17.705 21.3161 17.5035 21.3722 17.2998 21.3636C17.0961 21.355 16.9002 21.2821 16.7402 21.1556C16.5803 21.0291 16.4644 20.8549 16.4092 20.6585L13.6123 10.7152L12.541 14.1449C12.4796 14.3416 12.3564 14.5139 12.1904 14.6361C12.0245 14.758 11.824 14.8234 11.6182 14.8236H-9.18262C-9.43911 14.8235 -9.68481 14.7217 -9.86621 14.5404C-10.0476 14.359 -10.1503 14.1133 -10.1504 13.8568C-10.1504 13.6002 -10.0477 13.3537 -9.86621 13.1722C-9.68482 12.9909 -9.43907 12.8891 -9.18262 12.889H10.9072L12.7383 7.02769L12.7959 6.88316C12.8653 6.74437 12.9677 6.6234 13.0947 6.5316C13.2626 6.41032 13.4649 6.34772 13.6719 6.34995L13.6729 6.34898H13.6748Z" fill="white" stroke="white" stroke-width="0.3"/>
</g>
<path d="M39.086 22.116C38.1474 22.116 37.3187 21.8887 36.6 21.434C35.896 20.9794 35.346 20.334 34.95 19.498C34.554 18.6474 34.356 17.65 34.356 16.506C34.356 15.3474 34.554 14.3574 34.95 13.536C35.346 12.7 35.896 12.0547 36.6 11.6C37.3187 11.1454 38.1474 10.918 39.086 10.918C39.9807 10.918 40.758 11.138 41.418 11.578C42.0927 12.018 42.5474 12.5974 42.782 13.316H42.54V7.59602C42.54 7.14135 42.6574 6.79668 42.892 6.56202C43.1267 6.32735 43.464 6.21002 43.904 6.21002C44.344 6.21002 44.6814 6.32735 44.916 6.56202C45.1654 6.79668 45.29 7.14135 45.29 7.59602V20.664C45.29 21.1187 45.1727 21.4707 44.938 21.72C44.7034 21.9547 44.366 22.072 43.926 22.072C43.486 22.072 43.1487 21.9547 42.914 21.72C42.6794 21.4707 42.562 21.1187 42.562 20.664V18.948L42.804 19.608C42.584 20.3707 42.1367 20.9794 41.462 21.434C40.7874 21.8887 39.9954 22.116 39.086 22.116ZM39.856 20.026C40.3987 20.026 40.8754 19.894 41.286 19.63C41.6967 19.366 42.012 18.9774 42.232 18.464C42.4667 17.936 42.584 17.2834 42.584 16.506C42.584 15.3327 42.3347 14.46 41.836 13.888C41.3374 13.3014 40.6774 13.008 39.856 13.008C39.3134 13.008 38.8367 13.14 38.426 13.404C38.0154 13.6534 37.6927 14.042 37.458 14.57C37.238 15.0834 37.128 15.7287 37.128 16.506C37.128 17.6647 37.3774 18.5447 37.876 19.146C38.3747 19.7327 39.0347 20.026 39.856 20.026ZM49.5494 22.072C49.0948 22.072 48.7428 21.9547 48.4934 21.72C48.2588 21.4707 48.1414 21.1187 48.1414 20.664V12.348C48.1414 11.8934 48.2588 11.5487 48.4934 11.314C48.7281 11.0794 49.0581 10.962 49.4834 10.962C49.9088 10.962 50.2388 11.0794 50.4734 11.314C50.7081 11.5487 50.8254 11.8934 50.8254 12.348V13.734H50.6054C50.8108 12.854 51.2141 12.1867 51.8154 11.732C52.4168 11.2774 53.2161 11.006 54.2134 10.918C54.5214 10.8887 54.7634 10.9694 54.9394 11.16C55.1301 11.336 55.2401 11.6147 55.2694 11.996C55.2988 12.3627 55.2108 12.6634 55.0054 12.898C54.8148 13.118 54.5214 13.25 54.1254 13.294L53.6414 13.338C52.7468 13.426 52.0721 13.7047 51.6174 14.174C51.1628 14.6287 50.9354 15.274 50.9354 16.11V20.664C50.9354 21.1187 50.8181 21.4707 50.5834 21.72C50.3488 21.9547 50.0041 22.072 49.5494 22.072ZM57.5825 22.006C57.0839 22.006 56.6805 21.852 56.3725 21.544C56.0792 21.236 55.9325 20.84 55.9325 20.356C55.9325 19.8867 56.0792 19.5054 56.3725 19.212C56.6805 18.904 57.0839 18.75 57.5825 18.75C58.0959 18.75 58.4919 18.904 58.7705 19.212C59.0639 19.5054 59.2105 19.8867 59.2105 20.356C59.2105 20.84 59.0639 21.236 58.7705 21.544C58.4919 21.852 58.0959 22.006 57.5825 22.006ZM65.1971 22.116C64.4198 22.116 63.7231 21.9694 63.1071 21.676C62.5058 21.368 62.0291 20.9574 61.6771 20.444C61.3398 19.9307 61.1711 19.3514 61.1711 18.706C61.1711 17.914 61.3764 17.2907 61.7871 16.836C62.1978 16.3667 62.8651 16.0294 63.7891 15.824C64.7131 15.6187 65.9524 15.516 67.5071 15.516H68.6071V17.1H67.5291C66.6198 17.1 65.8938 17.144 65.3511 17.232C64.8084 17.32 64.4198 17.474 64.1851 17.694C63.9651 17.8994 63.8551 18.1927 63.8551 18.574C63.8551 19.058 64.0238 19.454 64.3611 19.762C64.6984 20.07 65.1678 20.224 65.7691 20.224C66.2531 20.224 66.6784 20.114 67.0451 19.894C67.4264 19.6594 67.7271 19.344 67.9471 18.948C68.1671 18.552 68.2771 18.0974 68.2771 17.584V15.054C68.2771 14.3207 68.1158 13.7927 67.7931 13.47C67.4704 13.1474 66.9278 12.986 66.1651 12.986C65.7398 12.986 65.2778 13.0374 64.7791 13.14C64.2951 13.2427 63.7818 13.4187 63.2391 13.668C62.9604 13.8 62.7111 13.8367 62.4911 13.778C62.2858 13.7194 62.1244 13.602 62.0071 13.426C61.8898 13.2354 61.8311 13.03 61.8311 12.81C61.8311 12.59 61.8898 12.3774 62.0071 12.172C62.1244 11.952 62.3224 11.7907 62.6011 11.688C63.2758 11.4094 63.9211 11.2114 64.5371 11.094C65.1678 10.9767 65.7398 10.918 66.2531 10.918C67.3091 10.918 68.1744 11.0794 68.8491 11.402C69.5384 11.7247 70.0518 12.216 70.3891 12.876C70.7264 13.5214 70.8951 14.3574 70.8951 15.384V20.664C70.8951 21.1187 70.7851 21.4707 70.5651 21.72C70.3451 21.9547 70.0298 22.072 69.6191 22.072C69.2084 22.072 68.8858 21.9547 68.6511 21.72C68.4311 21.4707 68.3211 21.1187 68.3211 20.664V19.608H68.4971C68.3944 20.1214 68.1891 20.5687 67.8811 20.95C67.5878 21.3167 67.2138 21.6027 66.7591 21.808C66.3044 22.0134 65.7838 22.116 65.1971 22.116ZM78.7023 26.076C77.9103 26.076 77.1403 26.0027 76.3923 25.856C75.659 25.7094 74.9917 25.482 74.3903 25.174C74.1117 25.0274 73.921 24.8514 73.8183 24.646C73.7303 24.4407 73.701 24.228 73.7303 24.008C73.7743 23.8027 73.8623 23.6194 73.9943 23.458C74.141 23.2967 74.317 23.1867 74.5223 23.128C74.7277 23.0694 74.9403 23.0987 75.1603 23.216C75.8057 23.5387 76.4143 23.744 76.9863 23.832C77.573 23.9347 78.0717 23.986 78.4823 23.986C79.465 23.986 80.1983 23.744 80.6823 23.26C81.181 22.7907 81.4303 22.0867 81.4303 21.148V19.168H81.6283C81.4083 19.916 80.9463 20.5174 80.2423 20.972C79.553 21.412 78.7683 21.632 77.8883 21.632C76.9203 21.632 76.077 21.412 75.3583 20.972C74.6397 20.5174 74.0823 19.8867 73.6863 19.08C73.2903 18.2734 73.0923 17.3347 73.0923 16.264C73.0923 15.4574 73.2023 14.7314 73.4223 14.086C73.657 13.426 73.9797 12.8614 74.3903 12.392C74.8157 11.9227 75.3217 11.5634 75.9083 11.314C76.5097 11.05 77.1697 10.918 77.8883 10.918C78.7977 10.918 79.5897 11.1454 80.2643 11.6C80.9537 12.04 81.401 12.6267 81.6063 13.36L81.3863 13.91V12.348C81.3863 11.8934 81.5037 11.5487 81.7383 11.314C81.9877 11.0794 82.325 10.962 82.7503 10.962C83.1903 10.962 83.5277 11.0794 83.7623 11.314C83.997 11.5487 84.1143 11.8934 84.1143 12.348V20.818C84.1143 22.5634 83.6523 23.876 82.7283 24.756C81.8043 25.636 80.4623 26.076 78.7023 26.076ZM78.6363 19.542C79.2083 19.542 79.6997 19.41 80.1103 19.146C80.521 18.882 80.8363 18.508 81.0563 18.024C81.291 17.5254 81.4083 16.9387 81.4083 16.264C81.4083 15.252 81.159 14.46 80.6603 13.888C80.1617 13.3014 79.487 13.008 78.6363 13.008C78.0643 13.008 77.573 13.14 77.1623 13.404C76.7517 13.668 76.429 14.042 76.1943 14.526C75.9743 15.01 75.8643 15.5894 75.8643 16.264C75.8643 17.276 76.1137 18.0754 76.6123 18.662C77.111 19.2487 77.7857 19.542 78.6363 19.542ZM92.2657 22.116C91.0484 22.116 89.9997 21.8887 89.1197 21.434C88.2397 20.9794 87.5577 20.334 87.0737 19.498C86.6044 18.662 86.3697 17.672 86.3697 16.528C86.3697 15.4134 86.597 14.438 87.0517 13.602C87.521 12.766 88.159 12.1134 88.9657 11.644C89.787 11.16 90.7184 10.918 91.7597 10.918C92.5224 10.918 93.2044 11.0427 93.8057 11.292C94.4217 11.5414 94.9424 11.9007 95.3677 12.37C95.8077 12.8394 96.1377 13.4114 96.3577 14.086C96.5924 14.746 96.7097 15.494 96.7097 16.33C96.7097 16.594 96.6144 16.7994 96.4237 16.946C96.2477 17.078 95.991 17.144 95.6537 17.144H88.5917V15.56H94.7737L94.4217 15.89C94.4217 15.2154 94.319 14.6507 94.1137 14.196C93.923 13.7414 93.637 13.3967 93.2557 13.162C92.889 12.9127 92.427 12.788 91.8697 12.788C91.2537 12.788 90.7257 12.9347 90.2857 13.228C89.8604 13.5067 89.5304 13.91 89.2957 14.438C89.0757 14.9514 88.9657 15.5674 88.9657 16.286V16.44C88.9657 17.6427 89.2444 18.5447 89.8017 19.146C90.3737 19.7327 91.2097 20.026 92.3097 20.026C92.691 20.026 93.1164 19.982 93.5857 19.894C94.0697 19.7914 94.5244 19.6227 94.9497 19.388C95.2577 19.212 95.529 19.1387 95.7637 19.168C95.9984 19.1827 96.1817 19.2634 96.3137 19.41C96.4604 19.5567 96.5484 19.74 96.5777 19.96C96.607 20.1654 96.563 20.378 96.4457 20.598C96.343 20.818 96.1597 21.0087 95.8957 21.17C95.3824 21.4927 94.7884 21.7347 94.1137 21.896C93.4537 22.0427 92.8377 22.116 92.2657 22.116ZM100.252 22.072C99.8115 22.072 99.4742 21.9547 99.2395 21.72C99.0049 21.4707 98.8875 21.1187 98.8875 20.664V12.348C98.8875 11.8934 99.0049 11.5487 99.2395 11.314C99.4742 11.0794 99.8042 10.962 100.23 10.962C100.655 10.962 100.985 11.0794 101.22 11.314C101.454 11.5487 101.572 11.8934 101.572 12.348V13.844L101.33 13.294C101.652 12.5167 102.151 11.93 102.826 11.534C103.515 11.1234 104.292 10.918 105.158 10.918C106.023 10.918 106.734 11.0794 107.292 11.402C107.849 11.7247 108.267 12.216 108.546 12.876C108.824 13.5214 108.964 14.3427 108.964 15.34V20.664C108.964 21.1187 108.846 21.4707 108.612 21.72C108.377 21.9547 108.04 22.072 107.6 22.072C107.16 22.072 106.815 21.9547 106.566 21.72C106.331 21.4707 106.214 21.1187 106.214 20.664V15.472C106.214 14.636 106.052 14.0274 105.73 13.646C105.422 13.2647 104.938 13.074 104.278 13.074C103.471 13.074 102.826 13.3307 102.342 13.844C101.872 14.3427 101.638 15.01 101.638 15.846V20.664C101.638 21.6027 101.176 22.072 100.252 22.072ZM115.893 22.116C114.954 22.116 114.125 21.8887 113.407 21.434C112.703 20.9794 112.153 20.334 111.757 19.498C111.361 18.6474 111.163 17.65 111.163 16.506C111.163 15.3474 111.361 14.3574 111.757 13.536C112.153 12.7 112.703 12.0547 113.407 11.6C114.125 11.1454 114.954 10.918 115.893 10.918C116.787 10.918 117.565 11.138 118.225 11.578C118.899 12.018 119.354 12.5974 119.589 13.316H119.347V7.59602C119.347 7.14135 119.464 6.79668 119.699 6.56202C119.933 6.32735 120.271 6.21002 120.711 6.21002C121.151 6.21002 121.488 6.32735 121.723 6.56202C121.972 6.79668 122.097 7.14135 122.097 7.59602V20.664C122.097 21.1187 121.979 21.4707 121.745 21.72C121.51 21.9547 121.173 22.072 120.733 22.072C120.293 22.072 119.955 21.9547 119.721 21.72C119.486 21.4707 119.369 21.1187 119.369 20.664V18.948L119.611 19.608C119.391 20.3707 118.943 20.9794 118.269 21.434C117.594 21.8887 116.802 22.116 115.893 22.116ZM116.663 20.026C117.205 20.026 117.682 19.894 118.093 19.63C118.503 19.366 118.819 18.9774 119.039 18.464C119.273 17.936 119.391 17.2834 119.391 16.506C119.391 15.3327 119.141 14.46 118.643 13.888C118.144 13.3014 117.484 13.008 116.663 13.008C116.12 13.008 115.643 13.14 115.233 13.404C114.822 13.6534 114.499 14.042 114.265 14.57C114.045 15.0834 113.935 15.7287 113.935 16.506C113.935 17.6647 114.184 18.5447 114.683 19.146C115.181 19.7327 115.841 20.026 116.663 20.026ZM128.49 22.116C127.713 22.116 127.016 21.9694 126.4 21.676C125.799 21.368 125.322 20.9574 124.97 20.444C124.633 19.9307 124.464 19.3514 124.464 18.706C124.464 17.914 124.669 17.2907 125.08 16.836C125.491 16.3667 126.158 16.0294 127.082 15.824C128.006 15.6187 129.245 15.516 130.8 15.516H131.9V17.1H130.822C129.913 17.1 129.187 17.144 128.644 17.232C128.101 17.32 127.713 17.474 127.478 17.694C127.258 17.8994 127.148 18.1927 127.148 18.574C127.148 19.058 127.317 19.454 127.654 19.762C127.991 20.07 128.461 20.224 129.062 20.224C129.546 20.224 129.971 20.114 130.338 19.894C130.719 19.6594 131.02 19.344 131.24 18.948C131.46 18.552 131.57 18.0974 131.57 17.584V15.054C131.57 14.3207 131.409 13.7927 131.086 13.47C130.763 13.1474 130.221 12.986 129.458 12.986C129.033 12.986 128.571 13.0374 128.072 13.14C127.588 13.2427 127.075 13.4187 126.532 13.668C126.253 13.8 126.004 13.8367 125.784 13.778C125.579 13.7194 125.417 13.602 125.3 13.426C125.183 13.2354 125.124 13.03 125.124 12.81C125.124 12.59 125.183 12.3774 125.3 12.172C125.417 11.952 125.615 11.7907 125.894 11.688C126.569 11.4094 127.214 11.2114 127.83 11.094C128.461 10.9767 129.033 10.918 129.546 10.918C130.602 10.918 131.467 11.0794 132.142 11.402C132.831 11.7247 133.345 12.216 133.682 12.876C134.019 13.5214 134.188 14.3574 134.188 15.384V20.664C134.188 21.1187 134.078 21.4707 133.858 21.72C133.638 21.9547 133.323 22.072 132.912 22.072C132.501 22.072 132.179 21.9547 131.944 21.72C131.724 21.4707 131.614 21.1187 131.614 20.664V19.608H131.79C131.687 20.1214 131.482 20.5687 131.174 20.95C130.881 21.3167 130.507 21.6027 130.052 21.808C129.597 22.0134 129.077 22.116 128.49 22.116Z" fill="#0E0A2F"/>
<defs>
<clipPath id="clip0_39_37">
<rect width="27.792" height="27.792" rx="6" fill="white"/>
</clipPath>
</defs>
</svg>
